<svg width="124" height="124" xmlns="http://www.w3.org/2000/svg">
 <metadata id="metadata3006">image/svg+xmlimage/svg+xml</metadata>

 <g id="g3008">
  <title>Layer 1</title>
  <metadata id="svg_15">image/svg+xml</metadata>
  <!-- Created with SVG-edit - http://svg-edit.googlecode.com/ -->
  <g id="svg_18">
   <g transform="matrix(6.44563 0 0 6.40097 -93.6954 -93.6234)" id="svg_17">
    <title>Layer 1</title>
    <g id="svg_10" transform="matrix(0.169352 0 0 0.169352 -2.72951 -2.77489)">
     <path fill="param(fill) red" d="m158.35295,140.69331c7.5,0 13.55501,-6.09401 13.55501,-13.58601c0,-7.5 -6.05501,-13.562 -13.55501,-13.562c-7.5,0 -13.562,6.062 -13.562,13.562c-0.00101,7.492 6.062,13.58601 13.562,13.58601z" id="svg_14"/>
     <rect id="svg_13" width="7.26315" height="6.60881" x="20.67113" y="23.25855" transform="matrix(5.90487 0 0 5.90487 14.594 13.1495)" fill="white"/>
     <path fill="param(fill) red" d="m171.53995,143.99832c6.203,0.21899 8.81201,5.18799 8.81201,5.18799l20.02299,27.47699c0.828,1.21901 1.312,2.71103 1.312,4.32001c0,4.27301 -3.461,7.74199 -7.73399,7.74199c-1.02299,0 -1.953,-0.22697 -2.836,-0.56198l-12.086,-3.37502l0,12.06201l-41.96001,0l0,-12.06299l-12.08599,3.37498c-0.85201,0.33601 -1.812,0.562 -2.844,0.562c-4.273,0 -7.72701,-3.46901 -7.72701,-7.742c0,-1.60898 0.47701,-3.10199 1.344,-4.31998l20.00799,-27.47702c0,0 2.625,-4.96899 8.80501,-5.18799l26.96899,0l0,0.00101zm-13.48399,44.42998l0,0l15.65601,-5.20299l-0.34401,-0.07001c-10.812,-3.172 -6.60899,-17.453 4.18001,-14.26599l1.48399,0.51601l0,-16.118l-20.976,6.85098l-20.98401,-6.85199l0,16.117l1.47701,-0.51602c10.80501,-3.18797 15.01601,11.09402 4.203,14.26602l-0.35201,0.06999l15.65601,5.20499l0,0l0,0z" id="svg_12"/>
     <path fill="param(fill) red" d="m201.15695,206.34932c1.07001,0 1.93001,-0.85899 1.93001,-1.93001l0,0c0,-1.078 -0.85901,-1.92999 -1.93001,-1.92999l-84.67999,0c-1.047,0 -1.93,0.85199 -1.93,1.92999l0,0c0,1.07001 0.883,1.93001 1.93,1.93001l84.67999,0z" id="svg_11"/>
    </g>
   </g>
  </g>
 </g>
</svg>