<svg width="124" height="124" xmlns="http://www.w3.org/2000/svg">
 <metadata id="metadata3006">image/svg+xmlimage/svg+xml</metadata>
 <g id="g3008">
  <title>Layer 1</title>
  <!-- Created with SVG-edit - http://svg-edit.googlecode.com/ -->
  <g id="svg_7">
   <path stroke="param(outline) #000" fill="param(fill) #FFF" stroke-width="param(outline-width) 1" d="m102.36047,103.83154l0.1328,-0.00106l-2.03523,-3.49938l-35.42084,-65.45113l6.63132,-12.20514l-4.3262,-2.23112l-5.0688,9.32949l-5.28374,-9.76354l-4.32975,2.22422l6.70656,12.3926c-2.88604,5.82032 -22.62856,41.78319 -35.91517,65.83836l-1.94471,3.52094l17.55228,-0.02831l4.36028,0.03287l0.02141,-0.03996l37.73546,-0.06096l0.05422,0.10092l17.0926,-0.12849l4.05051,-0.00652l-0.01302,-0.02378l0.00002,0zm-40.03572,-42.40125c4.0334,13.24456 12.53825,30.35019 16.3325,37.69444l-32.69237,0.0526c3.78063,-7.31449 12.31661,-24.47015 16.35987,-37.74706l0,0.00002z" id="svg_6"/>
  </g>
 </g>
</svg>