<svg width="124" height="124" xmlns="http://www.w3.org/2000/svg">
 <metadata id="metadata3006">image/svg+xmlimage/svg+xml</metadata>
 <g id="g3008">
  <title>Layer 1</title>
  <path fill="none" stroke-width="8" id="path3023" d="m6.11988,27.7288l55.56803,-16.74575l56.19221,15.32064" stroke="param(fill) marron"/>
  <g id="svg_7">
   <circle fill="param(fill) marron" cx="34.85143" cy="34.31718" r="5.42593" id="svg_1"/>
   <path fill="param(fill) marron" d="m33.85396,87.10868l0,25.01234c-0.03769,4.54427 -6.81154,4.54427 -6.87138,0l0,-25.01234l-8.8663,0l9.53126,-33.42355l-1.55161,0l-5.54145,19.03591c-1.40087,4.21006 -7.10191,2.50567 -5.7631,-1.99211l6.20642,-20.58538c0.71373,-2.36399 3.69724,-6.53839 8.86631,-6.64044l9.97459,0c5.0201,0.10205 8.01603,4.31187 8.8663,6.64044l6.2064,20.58538c1.25901,4.47564 -4.39679,6.31284 -5.7631,1.99211l-5.54144,-19.03591l-1.77326,0l9.75294,33.42355l-9.08798,0l0,25.01234c0.07094,4.54427 -6.67633,4.52214 -6.64973,0l0,-25.01234l-1.99491,0l0,0l0.00002,0l0.00002,0z" id="svg_2"/>
   <path fill="param(fill) marron" d="m86.16513,43.50314c-5.53922,0 -9.08798,4.78929 -9.08798,9.51796l0,22.1348c-0.05096,4.32513 6.1856,4.32513 6.20642,0l0,-20.36401l1.55158,0l0,56.22243c-0.09619,5.87015 8.21021,5.70191 8.20133,0l0,-32.75955l1.32996,0l0,32.75955c0.10861,5.70191 8.45844,5.87015 8.42298,0l0,-56.22243l1.55161,0l0,20.36401c-0.07313,4.35833 6.13104,4.35833 6.20641,0l0,-22.1348c-0.08865,-4.72866 -3.77037,-9.43317 -9.30961,-9.51796l-15.07272,0l0.00002,0z" id="svg_3"/>
   <circle fill="param(fill) marron" cx="93.81228" cy="34.31718" r="5.42595" id="svg_4"/>
   <path fill="param(fill) marron" d="m59.48034,87.3681c-4.64539,0 -7.6215,1.78487 -7.6215,3.54716l0,8.24921c-0.04276,1.61189 5.18745,1.61189 5.20491,0l0,-7.58929l1.30124,0l0,20.95306c-0.08067,2.1877 6.88535,2.12498 6.87793,0l0,-12.20887l1.11533,0l0,12.20887c0.09108,2.12498 7.09354,2.1877 7.06382,0l0,-20.95306l1.30122,0l0,7.58929c-0.06134,1.62427 5.14172,1.62427 5.20491,0l0,-8.24921c-0.07436,-1.7623 -3.16199,-3.51559 -7.80738,-3.54716l-12.64049,0l0,0z" id="svg_5"/>
   <ellipse fill="param(fill) marron" cx="65.73334" cy="79.9289" rx="6.0414" ry="5.47273" id="svg_6"/>
  </g>
 </g>
</svg>