<svg width="124" height="124" xmlns="http://www.w3.org/2000/svg">
 <metadata id="metadata3006">image/svg+xmlimage/svg+xml</metadata>

 <g id="g3008">
  <title>Layer 1</title>
  <metadata id="svg_15">image/svg+xml</metadata>

  <!-- Created with SVG-edit - http://svg-edit.googlecode.com/ -->
  <path stroke="#000" id="svg_6" d="m76.61395,39.26462l-2.19995,-0.0405l-0.42508,-26.37819l0,-0.42687l-11.98907,0.21344l-11.98911,-0.21344l0,0.42687l-0.42475,26.37819l-2.19996,0.0405l-21.24182,0l0,0.3923l0,11.62769l0,12.02001l0,0.23087l23.57726,0.1614l0.28928,34.37304l0,13.22616c0.61592,-0.07199 1.24097,-0.12122 1.87278,-0.15484c3.21338,0.57455 6.65614,0.48512 10.11663,0.29538c3.4602,0.18943 6.90295,0.27917 10.11636,-0.29538c0.63146,0.03362 1.25654,0.08285 1.87241,0.15484l0,-13.21308l0.28928,-34.38611l23.57758,-0.1614l0,-0.23087l0,-12.02001l0,-11.62769l0,-0.3923l-21.24184,0z" stroke-width="1" fill="param(fill) black"/>
 </g>
</svg>