<svg width="124" height="124" xmlns="http://www.w3.org/2000/svg">
 <metadata id="metadata3006">image/svg+xmlimage/svg+xml</metadata>

 <g id="g3008">
  <title>Layer 1</title>
  <g id="svg_10">
   <circle transform="matrix(0.187615 0 0 0.184259 -103.189 -101.216)" id="svg_6" r="72.563" cy="692.86108" cx="880.6919" stroke-width="0" fill="param(fill) #FFF"/>
   <path id="svg_7" d="m94.34619,62.35036l-18.40788,-18.10675c-1.521,-1.46929 -3.25269,-2.35835 -5.81982,-2.35835l-8.0849,0l-0.01371,0l-8.24155,0c-2.56714,0 -4.18476,0.91707 -5.6628,2.35835l-18.22269,17.93116c-4.98025,4.89169 1.7589,11.15301 6.73107,6.26977l11.00551,-10.8803l0,10.20518l14.39066,0l0.01369,0l14.29084,0l0,-10.2612l11.29406,11.11524c4.54762,4.70432 11.46873,-1.61651 6.72752,-6.2731z" stroke-width="0" fill="param(fill) #FFF"/>
   <path id="svg_8" d="m76.26495,73.06207l-10.81509,10.62234l7.94026,7.78366l-8.13631,7.99057c-4.80183,4.71646 1.82268,11.46181 6.78867,6.58468l12.86761,-13.14005c2.7615,-2.76778 3.52508,-7.87984 0.56451,-10.78728c-0.01012,-0.00976 -9.20965,-9.05392 -9.20965,-9.05392z" stroke-width="0" fill="param(fill) #FFF"/>
   <path id="svg_9" d="m50.5065,91.46808l7.94044,-7.78366l-10.81546,-10.62234c0,0 -9.19933,9.04417 -9.20927,9.05411c-2.96056,2.90743 -2.19698,8.01952 0.56454,10.78725l12.86758,13.14009c4.96581,4.87715 11.59031,-1.86841 6.78849,-6.5847l-8.13631,-7.99074z" stroke-width="0" fill="param(fill) #FFF"/>
  </g>
 </g>
</svg>