<svg width="124" height="124" xmlns="http://www.w3.org/2000/svg">
 <metadata id="metadata3006">image/svg+xmlimage/svg+xml</metadata>
 <g id="g3008">
  <title>Layer 1</title>
  <!-- Created with SVG-edit - http://svg-edit.googlecode.com/ -->
  <g id="svg_163">
   <g id="svg_162">
    <title transform="matrix(0.483515,0,0,0.50229,-122.818,-122.359) ">Layer 1</title>
    <path id="svg_160" d="m66.35213,15.78945l0,10.0458l10.63733,0l0,7.53435l-10.63733,0l0,15.0687l43.51635,31.64427l0,1.50687l-5.80219,0l0,26.62137l-18.37357,0l0,-26.62137l-23.69224,-17.58015l-23.69223,17.58015l0,26.62137l-18.37357,0l0,-26.62137l-5.80218,0l0,-1.50687l43.51635,-31.64427l0,-15.0687l-10.63733,0l0,-7.53435l10.63733,0l0,-10.0458l8.70327,0zm-14.98897,91.41678l0,-17.58015a11.12084,10.0458 0 0 1 21.27466,0l0,17.58015l-21.27466,0z" fill="#ffffff"/>
   </g>
  </g>
 </g>
</svg>