<svg width="124" height="124" xmlns="http://www.w3.org/2000/svg">
 <metadata id="metadata3006">image/svg+xmlimage/svg+xml</metadata>

 <g id="g3008">
  <title>Layer 1</title>
  <!-- Created with SVG-edit - http://svg-edit.googlecode.com/ -->
  <g id="svg_163">
   <g transform="matrix(0.483515 0 0 0.50229 -122.818 -122.359)" id="svg_162">
    <title>Layer 1</title>
    <path fill="param(fill) black" d="m391.23941,275.03723l0,20l22,0l0,15l-22,0l0,30l90,63l0,3l-12,0l0,53l-38,0l0,-53l-49,-35l-49,35l0,53l-38,0l0,-53l-12,0l0,-3l90,-63l0,-30l-22,0l0,-15l22,0l0,-20l18,0zm-31,182l0,-35a23,20 0 0 1 44,0l0,35l-44,0z" id="svg_160"/>
   </g>
  </g>
 </g>
</svg>