<svg width="124" height="124" xmlns="http://www.w3.org/2000/svg">
 <metadata id="metadata3006">image/svg+xmlimage/svg+xml</metadata>
 <g id="g3008">
  <title>Layer 1</title>
  <path transform="translate(-1 0) translate(-1 0) translate(-1 0) translate(-1 0) translate(-1 0) translate(-1 0) translate(0 11.6649) translate(6.39495 0)" id="svg_7" opacity="0.1" fill="param(fill) #FFF"/>
  <g id="svg_10" transform="matrix(0.212989 0 0 0.176399 0 0)">
   <path fill="param(fill) #FFF" stroke-width="0" d="m485.181,304.7919c-14.32797,-24.31198 -40.18796,-53.04398 -59.58597,-66.16301c-33.15399,-22.422 -92.77402,-44.911 -131.599,-49.66699c-11.28299,-0.61899 -22.259,-1.73801 -33.29199,-2.05301l-8.54599,-50.534l-27.1021,3.58101l8.89203,48.43199c-7.15103,1.16 -14.446,3.08301 -21.96803,6.07001l-27.02501,-54.86301l-22.81299,10.40601l29.55301,58.103c-2.77301,3.52499 -5.85599,7.636 -8.80702,10.905c-20.16298,22.339 -23.87001,54.00801 -9.48299,80.769c14.95499,27.81702 12.44199,47.00098 -6.93901,52.974c-8.20802,2.52902 -11.82202,1.85199 -29.93799,-5.26801c-11.332,-4.453 -24.68301,-8.06201 -29.64798,-8.03003c-14.02798,0.09103 -27.55398,8.53406 -34.91598,21.72806c-5.526,9.90201 -6.479,14.29599 -6.54,31.465c-0.07899,21.95001 2.598,29.66797 20.456,59.91296c18.14098,30.72504 44.97897,58.30304 75.93694,78.00702c21.28401,13.54797 60.43298,27.87201 83.74809,30.91998c13.94803,1.823 32.35199,4.46997 57.62698,4.06897l10.065,54.82404c1.146,8.78601 20.754,6.35205 20.41699,-1.98297l-9.108,-53.85803c11.88599,-0.92804 25.021,-2.53204 39.59,-5.08704c1.854,-0.43201 3.707,-0.90497 5.55801,-1.39795l14.36694,28.26202c3.647,8.09998 20.173,0.72101 17.375,-7.15607l-13.28598,-26.98297c35.63,-13.20599 68.535,-35.97101 87.85605,-58.12302c23.60999,-27.069 27.75491,-39.13303 33.64496,-68.19702c7.17398,-35.40997 -2.67297,-84.04898 -24.48999,-121.06497l0,0.00003zm-148.31198,-35.75198c5.43701,-6.23199 12.573,-15.371 15.87799,-20.31c4.629,-6.91801 6.66602,-8.57402 12.935,-8.61101c0.896,-0.005 1.854,0.02299 2.94202,0.073c12.724,0.58099 24.19299,4.963 29.03,11.08202c5.54599,7.013 13.608,42.44696 11.95401,52.53796c-1.31702,8.03903 -19.14203,30.26602 -24.27103,30.26602c-1.203,0 -3.565,0.50601 -5.26898,1.12598c-1.70401,0.621 -6.78601,-0.49698 -11.26401,-2.47c-4.47699,-1.974 -10.966,-3.66699 -14.42401,-3.77899c-10.58298,-0.341 -17.319,-5.55399 -22.48999,-17.40399c-7.98499,-18.302 -6.68799,-29.138 4.979,-42.51099zm-96.96103,-48.18602l8.868,48.304l-21.91104,-44.48099c4.03902,-1.931 8.42902,-3.23802 13.04305,-3.82301zm1.63498,85.24998c-21.89606,-1.92999 -39.10605,-20.33896 -39.10605,-42.73199c0,-8.07999 2.24301,-15.63599 6.136,-22.088l32.97006,64.81999l-0.00003,0l0.00002,0zm-75.76706,146.60004c-12.10898,10.08398 -15.83298,11.80896 -25.36,11.80896c-11.42598,0 -20.45599,-6.29099 -20.45599,-14.24295c0,-1.978 -2.71701,-9.43301 -6.031,-16.56705c-5.26598,-11.33496 -5.69599,-14.15698 -3.52399,-22.45496c3.036,-11.59799 13.693,-23.79706 20.89199,-24.16104c0.23201,-0.01199 0.429,-0.01297 0.65401,0c2.994,0.17697 12.772,0.64005 21.72801,1.01804c8.955,0.37701 17.597,1.67297 19.21999,2.83398c3.914,2.79901 14.49699,26.84198 14.49699,32.95398c-0.002,7.62302 -6.32399,16.073 -21.62001,28.81104zm112.34311,23.798c-2.55899,5.74298 -4.68301,12.28101 -4.72299,14.53299c-0.04102,2.25299 -2.746,7.57898 -5.995,11.80899c-5.17401,6.73502 -7.90601,7.82101 -21.98103,8.97403c-13.33406,1.09296 -16.28207,0.61798 -17.47705,-2.94202c-0.79202,-2.35999 -6.20003,-7.03009 -12.02602,-10.35504c-7.18901,-4.10196 -11.645,-8.82794 -13.77,-14.64197c-6.737,-18.42902 -0.627,-43.68799 11.009,-45.56299c3.10199,-0.49902 7.23999,-2.54901 9.192,-4.54099c1.952,-1.99304 7.98401,-4.42801 13.37105,-5.414c2.01498,-0.36905 3.73898,-0.56302 5.41399,-0.58102c5.02303,-0.05402 9.29303,1.65802 17.22205,6.24899c12.491,7.233 24.41602,21.146 24.41602,28.44897c-0.00201,1.98404 -2.09402,8.28104 -4.65201,14.02405zm-10.70001,-249.88605c12.461,7.5 20.79999,21.155 20.79999,36.75601c0,10.44 -3.737,20.013 -9.93997,27.45804l-10.86002,-64.21402l0,-0.00003zm106.25601,272.23099c-6.54901,1.60703 -15.65799,4.69601 -20.27399,6.90302c-18.96301,9.06799 -33.69,0.54498 -36.66,-21.25497c-5.13602,-37.71304 -5.14502,-37.604 5.26898,-49.52103c5.60901,-6.42001 9.18201,-9.57697 14.49701,-9.84702c0.293,-0.01501 0.56699,-0.039 0.87201,-0.03601c4.565,0.03799 10.50497,2.04901 19.83798,5.70404c5.75702,2.25494 13.565,5.05396 17.40302,6.24896c5.397,1.68201 8.41901,5.50104 13.26199,16.82199c11.53799,26.978 7.53201,39.64502 -14.207,44.98102zm100.388,-114.84897c-2.05899,7.29501 -4.26801,17.86499 -4.905,23.54401c-2.62,23.32996 -16.42801,33.68097 -34.40701,25.724c-31.10498,-13.76605 -31.03198,-13.73102 -34.84399,-30.01102c-3.86392,-16.50803 -2.48892,-20.06201 14.42401,-36.95102c4.58499,-4.578 10.65607,-10.96396 13.47998,-14.16998c3.22601,-3.664 6.71503,-5.04602 13.80701,-4.97803c1.63608,0.01599 3.46207,0.12903 5.522,0.29105c26.18301,2.05099 33.75497,12.33594 26.923,36.55099z" id="svg_11"/>
   <path fill="param(fill) #FFF" stroke-width="0" d="m161.22893,146.48689l22,-8.61099c-2.33701,-9.44701 1.938,-17.76202 -8.521,-27.31402c-14.632,-13.362 -21.12402,-17.041 -29.959,-24.50099c-2.063,17.87 -5.72702,40.68001 16.48,60.426z" id="svg_12"/>
   <path fill="param(fill) #FFF" stroke-width="0" d="m250.92401,134.2399c0.655,-9.71101 7.81299,-16.48202 0.061,-28.57001c-10.84409,-16.91 -16.39008,-22.256 -23.13609,-31.884c-7.97899,16.549 -19.23201,37.387 -2.599,62.539l25.67409,-2.08501l0,0.00002z" id="svg_13"/>
  </g>
 </g>
</svg>