<svg width="124" height="124" xmlns="http://www.w3.org/2000/svg">
 <metadata id="metadata3006">image/svg+xmlimage/svg+xml</metadata>

 <g id="g3008">
  <title>Layer 1</title>
 
  <g id="svg_15">
   <g display="none" transform="matrix(8.37242 0 0 9.40132 -193.147 -117.433)" id="svg_8">
    <rect stroke="#757575" height="10" width="10" stroke-width="0.1" fill="none" y="12.83198" x="14.27226" id="svg_10"/>
    <rect stroke="#757575" height="8" width="8" stroke-width="0.1" fill="none" y="13.83198" x="15.27226" id="svg_9"/>
   </g>
   <path id="svg_12" d="m109.35857,28.75689c-0.08625,-0.4317 -0.42027,-0.7445 -0.81412,-0.76188l-49.83719,-2.20908c-0.14658,-0.00565 -0.29299,0.02891 -0.42445,0.1031l-43.18076,24.35105c-0.3582,0.20208 -0.54687,0.65273 -0.45714,1.09127c0.08989,0.43853 0.43489,0.75133 0.83569,0.75738l53.81441,0.81029c0.00383,0 0.00781,0 0.01165,0c0.13997,0 0.27785,-0.03787 0.40202,-0.1105l39.20353,-22.95246c0.34933,-0.20463 0.53261,-0.64745 0.44637,-1.07916z" stroke-width="0" fill="param(fill) #FFF"/>
   <path id="svg_13" d="m92.8409,43.33713c-0.26743,-0.34853 -0.71484,-0.4401 -1.0746,-0.22044l-21.44293,13.10785l-32.28073,-1.03347c-0.38376,-0.01327 -0.72579,0.25677 -0.84838,0.66289l-4.66581,15.47997c-0.10033,0.33289 -0.03356,0.70055 0.17493,0.96297c0.16675,0.20991 0.40375,0.32628 0.64857,0.32628c0.06104,0 0.12259,-0.00723 0.18345,-0.02187c0.20274,-0.04921 0.4175,-0.16129 1.06555,-0.50845c2.45853,-1.31678 10.05149,-5.38563 19.90528,-5.1982c6.01166,0.11365 19.27443,5.24586 19.40779,5.29778c0.33612,0.13083 0.70858,0.01875 0.94141,-0.28274c0.06104,-0.07887 6.1506,-7.92957 10.7472,-11.13618c4.54115,-3.16777 15.22818,-4.52263 15.33546,-4.5359c0.32082,-0.03984 0.59555,-0.2757 0.71361,-0.61289s0.06052,-0.7201 -0.15006,-0.99461l-8.66075,-11.29299z" stroke-width="0" fill="param(fill) #FFF"/>
   <path id="svg_14" d="m28.18433,79.47846c0.21371,-2.45547 0.50373,-5.38486 0.89932,-8.82638c0.37646,-3.27631 1.02678,-6.62292 1.76596,-9.30491s1.76979,-4.78777 2.03234,-5.07656c0.61503,-0.67615 1.15042,-1.01569 1.49975,-1.18987c0.0779,-0.03885 0.1358,-0.06325 0.18483,-0.08551l-5.22188,0.08551c-0.72857,1.36364 -1.25352,3.07601 -1.81499,5.11327c-0.8089,2.93521 -1.49365,6.45268 -1.89637,9.95786c-0.38393,3.34172 -0.67084,6.22756 -0.88541,8.67661c-2.48462,0.44145 -4.41699,2.76651 -4.59991,5.62716c-0.01999,0.07008 -0.03512,0.14291 -0.04051,0.21965l-0.74526,10.39191c-0.00192,0.02675 -0.00296,0.0533 -0.00296,0.07966c0.00018,0.50353 0.34498,0.93077 0.79968,0.97176c0.02383,0.00234 0.0473,0.00333 0.07078,0.00333c0.39106,0 0.73014,-0.29445 0.83498,-0.70858l-0.03269,0.45592c-0.00191,0.02673 -0.00295,0.0533 -0.00295,0.07966c0.00017,0.50354 0.34498,0.93076 0.79968,0.97177c0.02382,0.00234 0.0473,0.0033 0.07077,0.0033c0.19023,0 0.36621,-0.07262 0.51105,-0.19193c0.0692,0.35654 0.31246,0.65548 0.65015,0.74393c0.06625,0.01736 0.13267,0.02576 0.19805,0.02576c0.39489,0 0.75239,-0.30438 0.84594,-0.75484l0.22553,-1.08657c0.01095,0.00274 0.02173,0.00603 0.03269,0.0088l-0.21283,1.02526c-0.01548,0.07458 -0.02279,0.14916 -0.02279,0.22279c0,0.44342 0.27109,0.84463 0.67224,0.9495c0.06625,0.01738 0.13267,0.02577 0.19806,0.02577c0.3269,0 0.6258,-0.21049 0.77291,-0.53792c0.0386,0.37448 0.26743,0.70624 0.60894,0.82279c0.08416,0.0287 0.16936,0.04237 0.25299,0.04237c0.37281,0 0.71762,-0.2714 0.83152,-0.69276l1.44096,-5.32803c1.35977,-2.56013 2.17545,-5.82104 2.17545,-7.29892c-0.00018,-2.344 -1.17423,-4.38457 -2.89602,-5.42155zm-1.97531,15.89722c0.00765,-0.00428 0.01512,-0.00896 0.02278,-0.01325l-0.08643,0.31961l0.06365,-0.30636z" stroke-width="0" fill="param(fill) #FFF"/>
  </g>
 </g>
</svg>