<svg width="124" height="124" xmlns="http://www.w3.org/2000/svg">
 <metadata id="metadata3006">image/svg+xmlimage/svg+xml</metadata>
 <g id="g3008">
  <title>Layer 1</title>
  <rect id="svg_1" height="48.28571" width="87.14286" y="37.42857" x="17.71429" stroke-linecap="null" stroke-linejoin="null" stroke-dasharray="null" stroke-width="0" stroke="param(fill) orange" fill="#ffffff"/>
  <g id="svg_19">
   <g id="svg_10" transform="matrix(10.0506 0 0 9.04805 -232.041 -114.745)" display="none">
    <rect id="svg_12" x="13.0511" y="13.89967" fill="none" stroke-width="0.1" width="10" height="10" stroke="#757575"/>
    <rect id="svg_11" x="14.0511" y="14.89967" fill="none" stroke-width="0.1" width="8" height="8" stroke="#757575"/>
   </g>
   <g id="svg_9" opacity="0.75" transform="matrix(0.208737 0 0 0.187915 -120.101 -108.486)">
    <path fill="crimson" stroke-width="0" d="m689.78479,1145.20923c-1.95801,0 -3.94904,-0.37598 -5.87103,-1.17004c-7.85797,-3.24487 -11.59698,-12.24597 -8.35095,-20.104l46.83698,-113.39496l64.20099,-37.026l1.57397,-141.63098l19.78101,-42.99902l47.16199,-111.66095c2.698,-6.38904 9.20508,-10.00305 15.76105,-9.32703c6.552,-0.67902 13.05103,2.93201 15.75397,9.31201l43.00903,101.521l-4.08398,89.685l106.2641,172.30096l34.37292,83.21997c3.245,7.85803 -0.49292,16.85913 -8.35095,20.104c-7.85608,3.24414 -16.85803,-0.49292 -20.104,-8.35095l-33.42609,-80.92603l-109.94299,-178.26697l4.19897,-92.19l-27.672,-65.31598l-34.87195,82.54199l-17.13904,37.25598l-1.69598,152.625l-70.33405,40.56299l-42.83795,103.71301c-2.45203,5.93591 -8.18805,9.521 -14.23401,9.521z" id="svg_14"/>
   </g>
   <g id="svg_15" transform="matrix(0.208737 0 0 0.187915 -120.101 -108.486)">
    <path fill="crimson" stroke-width="0" d="m866.86578,989.87323c3.45001,4.12097 7.79199,6.18896 13.08398,6.18896c4.89099,0 8.99805,-2.039 12.31403,-6.09296s5.00299,-10.87903 5.00299,-20.46002c0,-8.44196 -1.625,-14.61499 -4.875,-18.56799c-3.24896,-3.953 -7.21002,-5.93402 -11.83301,-5.93402c-5.56201,0 -10.07996,2.03705 -13.59802,6.15802c-3.51794,4.12006 -5.29199,10.38501 -5.29199,18.76001c0.00201,9.17999 1.74597,15.828 5.19702,19.948z" id="svg_16"/>
    <path fill="crimson" stroke-width="0" d="m709.49976,867.17523c-2.27802,2.211 -3.39899,4.72198 -3.39899,7.53699c0,3.216 1.12299,5.84503 3.367,7.88898c2.245,2.04407 5.52203,3.07904 9.87701,3.07904c4.55597,0 8.81201,-1.125 12.73199,-3.33502c3.91901,-2.21094 6.69598,-4.89899 8.33801,-8.08197s2.46899,-7.31903 2.46899,-12.41101l0,-6.54199c-5.62799,2.01001 -11.50903,3.78302 -17.60602,5.323c-8.30798,2.211 -13.56702,4.39801 -15.77802,6.54199z" id="svg_17"/>
    <path fill="crimson" stroke-width="0" d="m1091.2688,760.67426l-437.74902,0c-5.66699,0 -10.26202,4.59497 -10.26202,10.26196l0,273.987c0,5.66797 4.59503,10.26306 10.26202,10.26306l437.74902,0c5.66809,0 10.26306,-4.59509 10.26306,-10.26306l0,-273.987c-0.00098,-5.66797 -4.59497,-10.26196 -10.26306,-10.26196zm-351.49506,63.49597c-2.07697,-2.01001 -5.74194,-3.01501 -10.96796,-3.01501c-6.70001,0 -11.72302,1.06305 -15.073,3.20703c-2.61298,1.67499 -4.742,4.83698 -6.35004,9.45996l-39.09296,-4.13696c1.474,-6.83405 3.60101,-12.211 6.38196,-16.13104c2.78003,-3.91895 6.79999,-7.31696 12.026,-10.198c3.75201,-2.07697 8.89203,-3.67096 15.45801,-4.81097c6.56604,-1.13898 13.68805,-1.73199 21.32703,-1.73199c12.26099,0 22.099,0.711 29.53595,2.08398c7.43707,1.37402 13.64203,4.23999 18.60004,8.59503c3.48401,3.01495 6.23199,7.26898 8.242,12.79596c2.01001,5.52802 3.01398,10.81702 3.01398,15.84204l0,47.10999c0,5.02502 0.32605,8.98596 0.96204,11.83295c0.63599,2.84808 2.02496,6.48206 4.16901,10.90405l-38.38702,0c-1.54102,-2.74701 -2.54602,-4.84503 -3.01501,-6.28601c-0.46899,-1.44 -0.94196,-3.716 -1.41095,-6.79901c-5.36005,5.159 -10.70905,8.85303 -16.00305,11.06403c-7.23596,2.948 -15.625,4.42603 -25.20697,4.42603c-12.72998,0 -22.39099,-2.95502 -28.99103,-8.85101c-6.59998,-5.896 -9.90997,-13.16504 -9.90997,-21.80792c0,-8.10712 2.39502,-14.78503 7.151,-20.01105c4.75702,-5.22589 13.53198,-9.09497 26.32898,-11.64203c15.34302,-3.08203 25.26904,-5.23804 29.82501,-6.47803c4.55603,-1.23999 9.40302,-2.86499 14.49603,-4.875c0.00098,-5.021 -1.03204,-8.53699 -3.10907,-10.547zm136.13501,93.48199c5.19202,-2.14404 10.92303,-3.20599 17.22205,-3.20697c12.99799,0.00098 23.75299,4.66797 32.26202,14.01593c8.50897,9.34607 12.76398,22.76007 12.76398,40.24603c0,11.659 -1.95105,21.94098 -5.83698,30.81897s-9.26404,15.495 -16.13104,19.88403s-14.48999,6.60492 -22.86499,6.60492c-7.17004,0 -13.72797,-1.56689 -19.69104,-4.64893c-4.48895,-2.41199 -9.36194,-6.93298 -14.65497,-13.565l0,15.77802l-38.29102,0l0,-147.328l41.30603,0l0,51.05505c4.08502,-4.28906 8.724,-7.50903 13.91595,-9.65405zm113.23804,-43.453c4.15399,4.55603 9.47498,6.86298 15.90698,6.86298c5.35999,0 9.84998,-1.38995 13.50098,-4.13696s6.40009,-6.97198 8.21014,-12.66699l38.86792,4.42596c-2.14392,8.10706 -5.66003,15.14001 -10.5509,21.07007c-4.89099,5.92896 -11.12402,10.539 -18.729,13.82196s-17.26611,4.90704 -28.99109,4.90704c-11.323,0 -20.74701,-1.06403 -28.28503,-3.17505c-7.53796,-2.11096 -14.039,-5.50702 -19.46594,-10.22998c-5.42804,-4.72302 -9.68207,-10.27905 -12.76404,-16.64398c-3.08301,-6.36505 -4.61798,-14.815 -4.61798,-25.33502c0,-10.98804 1.85901,-20.11603 5.61194,-27.41901c2.74603,-5.35999 6.49902,-10.177 11.25604,-14.43097c4.75702,-4.25507 9.66302,-7.41602 14.68799,-9.49304c7.974,-3.28296 18.19696,-4.93896 30.659,-4.93896c17.42004,0 30.68512,3.133 39.83002,9.36395c9.146,6.23102 15.58911,15.33002 19.27405,27.323l-38.51599,5.13104c-1.20605,-4.55603 -3.39307,-7.98303 -6.57404,-10.29401c-3.18304,-2.31201 -7.46802,-3.46301 -12.828,-3.46301c-6.76801,0 -12.23206,2.422 -16.42004,7.28003s-6.28497,12.21497 -6.28497,22.06396c0.00098,8.77399 2.06799,15.41998 6.22198,19.97699z" id="svg_18"/>
   </g>
  </g>
 </g>
</svg>