<svg width="124" height="124" xmlns="http://www.w3.org/2000/svg">
 <metadata id="metadata3006">image/svg+xmlimage/svg+xml</metadata>
 <g id="g3008">
  <title>Layer 1</title>
  <path stroke="param(fill) marron" d="m6.11988,27.7288l55.56803,-16.74575l56.19221,15.32064" id="path3023" stroke-width="8" fill="none"/>
  <g id="svg_7">
   <g id="svg_5">
    <path id="svg_3" d="m82.30815,43.5031c-5.5392,0 -9.088,4.7893 -9.088,9.518l0,22.1348c-0.0509,4.3251 6.1856,4.3251 6.2065,0l0,-20.364l1.5516,0l0,56.2221c-0.0962,5.87 8.21021,5.702 8.2013,0l0,-32.7592l1.3299,0l0,32.7592c0.1087,5.702 8.4586,5.87 8.4226,0l0,-56.2221l1.552,0l0,20.364c-0.07301,4.3583 6.131,4.3583 6.20599,0l0,-22.1348c-0.088,-4.7287 -3.77,-9.4332 -9.309,-9.518l-15.0729,0l0,0z" fill="param(fill) marron"/>
    <circle id="svg_4" r="5.42595" cy="34.31718" cx="89.95533" fill="param(fill) marron"/>
   </g>
   <g id="svg_6">
    <circle id="svg_1" r="5.42593" cy="34.53637" cx="38.70877" fill="param(fill) marron"/>
    <path id="svg_2" d="m37.71125,87.3279l0,25.01209c-0.0376,4.54401 -6.8115,4.54401 -6.8713,0l0,-25.01209l-8.8663,0l9.5312,-33.4236l-1.5516,0l-5.5414,19.0359c-1.4009,4.2101 -7.1019,2.5057 -5.7631,-1.9921l6.2064,-20.5854c0.7137,-2.364 3.6972,-6.5384 8.8663,-6.6404l9.9746,0c5.0201,0.102 8.016,4.3119 8.8663,6.6404l6.2064,20.5854c1.259,4.4757 -4.3968,6.3129 -5.7631,1.9921l-5.5415,-19.0359l-1.7732,0l9.7529,33.4236l-9.088,0l0,25.01209c0.071,4.54401 -6.6763,4.522 -6.6497,0l0,-25.01209l-1.9949,0l0,0l0,0l0,0z" fill="param(fill) marron"/>
   </g>
  </g>
 </g>
</svg>