<svg width="124" height="124" xmlns="http://www.w3.org/2000/svg">
 <metadata id="metadata3006">image/svg+xmlimage/svg+xml</metadata>

 <g id="g3008">
  <title>Layer 1</title>
  <!-- Created with SVG-edit - http://svg-edit.googlecode.com/ -->
  <g id="svg_12">
   <g transform="matrix(0.180116 0 0 0.187048 -86.7508 -93.5529)" id="svg_11">
    <title>Layer 1</title>
    <g transform="matrix(1.25 0 0 -1.25 -92.7109 805.414)" id="svg_7" display="inline">
     <path stroke="#555753" d="m714.07007,196.96057l-29.57501,-29.45001l0,-41.825l3.27502,-3.27499l-12.52502,0l-84.5,-84.5004l0,-12.65l-3.27496,3.4l-41.82501,0l-29.57501,-29.57498l0,-41.70002l29.57501,-29.575l41.82501,0l3.27496,3.4l0,-12.65l36.125,-36.1246l16.375,16.35001l-29.29999,29.2997l0,31.4499l-27.59998,0l-8.55005,-8.55l-22.47498,0l-16.07501,15.95l0,22.6l16.07501,15.95001l22.47498,0l8.55005,-8.54998l27.59998,0l0,31.44997l29.29999,29.3l-2.14996,2.125l-30.15002,-30.15l0,-29.72497l-23.32501,0l-8.54999,8.52499l-25.02502,0l-17.77496,-17.625l0,-25.20002l17.77496,-17.625l25.02502,0l8.54999,8.525l23.32501,0l0,-29.575l28.02502,-28.1746l-12.10004,-12.10001l-33.125,33.1496l0,18.65l-7.54999,-7.55l-39.27502,0l-27.72498,27.75l0,39.10003l27.72498,27.89997l39.27502,0l7.54999,-7.7l0,18.65l82.65002,82.6504l18.77496,0l-7.69995,7.675l0,39.27501l27.75,27.72501l39.25,0l27.75,-27.72501l0,-39.27501l-7.55005,-7.675l18.65002,0l40.25,-40.27541l-12.09998,-12.075l-35.27502,35.2754l-29.57501,0l0,23.325l8.52502,8.55001l0,25.02499l-17.77502,17.64999l-25.04999,0l-17.625,-17.64999l0,-25.02499l8.52502,-8.55001l0,-23.325l-29.72504,0l-30.14996,-30.3004l2.125,-2.125l29.29999,29.425l31.45001,0l0,27.4754l-8.55005,8.67501l0,22.47501l15.95001,15.92499l22.60004,0l15.94995,-15.92499l0,-22.47501l-8.67499,-8.67501l0,-27.4754l31.57501,0l70.82501,-70.825l0,-31.44997l27.47498,0l8.67499,8.54995l22.47504,0l15.92499,-15.94998l0,-22.6l-15.92499,-15.95l-22.47504,0l-8.67499,8.55l-27.47498,0l0,-31.45l-29.42499,-29.2996l2.125,-2.125l30.29999,30.2996l0,29.575l23.17499,0l8.70001,-8.525l25.02496,0l17.65002,17.625l0,25.20002l-17.65002,17.625l-25.02496,0l-8.70001,-8.52499l-23.17499,0l0,29.72497l-35.27502,35.125l12.07501,12.1l40.27502,-40.24999l0,-18.65l7.67499,7.7l39.27496,0l27.72504,-27.89997l0,-39.10003l-27.72504,-27.75l-39.27496,0l-7.67499,7.55l0,-18.65l-82.65002,-82.6496l-18.65002,0l7.55005,-7.675l0,-39.27499l-27.75,-27.72501l-39.25,0l-27.75,27.72501l0,39.27499l7.69995,7.675l-18.77496,0l-40.27502,40.27499l12.10004,12.075l35.27496,-35.275l29.72504,0l0,-23.17499l-8.52502,-8.70001l0,-25.02499l17.625,-17.64999l25.04999,0l17.77502,17.64999l0,25.02499l-8.52502,8.70001l0,23.17499l29.57501,0l30.29999,30.3l-2.125,2.125l-29.29999,-29.425l-31.57501,0l0,-27.47499l8.67499,-8.52501l0,-22.625l-15.94995,-15.92499l-22.60004,0l-15.95001,15.92499l0,22.625l8.55005,8.52501l0,27.47499l-31.45001,0l-34.42499,34.425l12.25,12.07471l29.29999,-29.29971l41.52496,0l0,-47.37498l3,0l0,47.37498l41.52502,0l60.75,60.7497l0,41.5249l47.375,0l0,3l-47.375,0l0,41.525l-24.32501,24.325l-2.125,-2.125l23.45001,-23.475l0,-83.5l-59.02502,-59.0246l-83.5,0l-28.44995,28.4496l12.09998,12.075l23.45001,-23.4746l69.29999,0l18.47498,18.4996l-2.125,2.125l-17.64996,-17.47459l-66.85004,0l-22.47498,22.47459l12.09998,12.075l17.47504,-17.5l52.64996,0l37.27502,37.275l0,52.50001l-17.65002,17.62499l12.22504,12.1l22.47498,-22.625l0,-66.7l-17.47498,-17.65l2.125,-2.125l18.34998,18.475l0,69.3l-48.92499,49.075l-69.29999,0l-23.45001,-23.475l-12.09998,12.075l28.44995,28.44999l83.5,0l23.47504,-23.44999l2.125,2.125l-24.32501,24.32499l-41.52502,0l0,47.3754l-3,0l0,-47.3754l-41.52496,0l-60.90002,-60.74999l0,-34.425l3.15002,0l0,33.15l28.45001,28.45l12.07495,-12.1l-23.47498,-23.45l0,-69.3l18.5,-18.475l2.125,2.125l-17.625,17.65l0,66.7l47.22498,47.225l66.85004,0l22.625,-22.475l-12.22504,-12.075l-17.5,17.5l-52.64996,0l-37.125,-37.27499l0,-52.50001l12.52496,-12.65l2.125,2.275l-11.64996,11.525l0,50.20002l16.64996,16.64998l12.07501,-12.22499l-11.52496,-11.52503l0,-35.99998l6.54999,-6.55l2.125,2.15l-5.67499,5.675l0,33.44999l23.59998,23.60001l33.45001,0l5.67499,-5.675l2.15002,2.125l-6.55005,6.55l-36,0l-11.64996,-11.67499l-12.10004,12.22499l16.65002,16.65l50.07501,0l35.39996,-35.42501l0,-50.19999l-16.625,-16.65l-12.09998,12.225l11.67499,11.525l0,35.99998l-6.70001,6.55002l-2.125,-2.14996l5.82501,-5.67502l0,-33.45002l-23.59998,-23.6l-30.72504,0l-3,-3l35,0l11.52502,11.67501l12.07501,-12.225l-16.625,-16.65l-50.07501,0l-16.65002,16.65l21.32501,21.475l-9.79999,9.8l0,25.20002l17.625,17.625l25.04999,0l17.77502,-17.625l0,-25.20002l-17.77502,-17.625l-25.04999,0l-2.70001,2.85l-16.5,-16.5l9.67499,-9.55l44.25,0l9.52502,9.55l-2.125,2.125l-8.67499,-8.675l-41.70001,0l-6.67499,6.55l12.22498,12.225l1.42499,-1.575l27.60004,0l19.5,19.5l0,27.45002l-8.67499,8.67502l12.07495,12.24996l13.80005,-13.79998l0,-41.70002l-8.82501,-8.675l2.14996,-2.125l9.67505,9.525l0,44.25001l-31.30005,31.29998l-44.25,0l-9.67499,-9.55l2.15002,-2.125l8.79999,8.675l41.70001,0l13.64996,-13.65l-12.09998,-12.22497l-8.67499,8.67497l-27.60004,0l-19.47498,-19.49998l0,-27.45002l8.67499,-8.675l-12.09998,-12.1l-13.65002,13.65l0,41.70002l8.67499,8.67502l-2.125,2.125l-9.54999,-9.52502l0,-44.25001l14.52502,-14.5l-12.10004,-12.25l-19.625,19.65l0,58.45002l41.40002,41.39998l58.45001,0l14.52496,-14.65l2.125,2.125l-15.34998,15.525l-61.04999,0l-43.10004,-43.09999l0,-61.05001l20.5,-20.475l-12.09998,-12.10001l-25.59998,25.47501l0,75.25l20.625,20.475l-2.125,2.15l-21.5,-21.475l0,-77.55l26.47498,-26.45001l-12.09998,-12.1l-31.42505,31.45l0,37.275l-41.82495,0l-8.55005,-8.55l-14.22498,0l-10.09998,10.1l0,14.1l10.09998,10.10001l14.22498,0l8.55005,-8.55001l41.82495,0l0,37.275l64.85004,65l37.42499,0l0,41.8254l-8.54999,8.55l0,14.22501l9.97498,9.95l14.22504,0l10.09998,-9.95l0,-14.22501l-8.54999,-8.55l0,-41.8254l37.27496,0l31.45001,-31.425l-12.09998,-12.1l-26.45001,26.32499l-77.67499,0l-21.35004,-21.34999l2.15002,-2.125l20.47498,20.47499l75.10004,0l53.20001,-53.05l0,-75.25l-25.45001,-25.47501l-12.10004,12.10001l20.5,20.475l0,61.05001l-15.52496,15.49999l-2.125,-2.15l14.5,-14.65001l0,-58.44999l-41.25,-41.25001l-58.45001,0l-14.65002,14.5l-2.14996,-2.125l15.5,-15.52499l61.04999,0l20.47498,20.5l12.10004,-12.10001l-25.625,-25.4496l-75.10004,0l-20.47498,20.4746l-2.15002,-2.125l21.35004,-21.3496l77.67499,0l54.90002,54.89961l0,77.55l-26.32501,26.45l12.09998,12.1l31.42499,-31.45l0,-37.275l41.82501,0l8.54999,8.55001l14.22504,0l9.95001,-10.10001l0,-14.1l-9.95001,-10.1l-14.22504,0l-8.54999,8.55l-41.82501,0l0,-37.275l-65,-64.9996l-37.27496,0l0,-41.825l8.54999,-8.55l0,-14.22501l-10.09998,-9.95l-14.22504,0l-9.97498,9.95l0,14.22501l8.54999,8.55l0,41.825l-37.42499,0l-26.29999,26.44999l-2.15002,-2.125l27.32501,-27.32499l35.54999,0l0,-37.27499l-8.52502,-8.82501l0,-16.625l11.80005,-11.825l16.64996,0l11.79999,11.825l0,16.625l-8.52496,8.82501l0,37.27499l35.54999,0l32.29999,32.3l12.10004,-12.10001l-37.27502,-37.39999l-25.59998,0l0,-13.25l8.52496,-8.52501l0,-30.875l-21.77496,-21.89999l-30.85004,0l-21.92499,21.89999l0,30.875l8.54999,8.52501l0,13.25l-25.47498,0l-32.42499,32.42499l-2.15002,-2.125l33.29999,-33.29999l23.75,0l0,-8.95l-8.52496,-8.55l0,-33.425l23.59998,-23.625l33.45001,0l23.59998,23.625l0,33.425l-8.52496,8.55l0,8.95l23.75,0l78.52496,78.52459l0,23.75l8.95001,0l8.54999,-8.525l33.42499,0l23.625,23.6l0,33.44999l-23.625,23.60001l-33.42499,0l-8.54999,-8.525l-8.95001,0l0,23.75l-33.29999,33.15l-2.125,-2.15l32.42499,-32.27499l0,-25.6l13.25,0l8.52502,8.675l30.875,0l21.89996,-21.925l0,-30.85l-21.89996,-21.925l-30.875,0l-8.52502,8.675l-13.25,0l0,-25.6l-37.39996,-37.2746l-12.10004,12.10001l32.29999,32.2996l0,35.55l37.55005,0l8.54999,-8.525l16.625,0l11.82501,11.8l0,16.65l-11.82501,11.80001l-16.625,0l-8.54999,-8.52501l-37.55005,0l0,35.55l-66.72498,66.725l-35.54999,0l0,37.55041l8.52496,8.55l0,16.625l-11.79999,11.825l-16.64996,0l-11.80005,-11.825l0,-16.625l8.52502,-8.55l0,-37.55041l-35.54999,0l-32.29999,-32.3l-12.22504,12.09999l37.40002,37.4004l25.47498,0l0,13.25l-8.54999,8.52502l0,30.875l21.92499,21.89999l30.85004,0l21.77496,-21.89999l0,-30.875l-8.52496,-8.52502l0,-13.25l25.59998,0l32.27502,-32.4254l2.14996,2.125l-33.14996,33.3004l-23.75,0l0,8.95l8.52496,8.55l0,33.425l-23.59998,23.625l-33.45001,0l-23.59998,-23.625l0,-33.425l8.52496,-8.55l0,-8.95l-23.75,0l-78.52496,-78.52539l0,-23.75l-9.10004,0l-8.54999,8.525l-33.42499,0l-23.60004,-23.59998l0,-33.45002l23.60004,-23.6l33.42499,0l8.54999,8.525l9.10004,0l0,-23.75l26.02496,-26.0246l2.15002,2.125l-25.17499,25.1746l0,25.6l-13.25,0l-8.67505,-8.675l-30.875,0l-21.75,21.925l0,30.85003l21.75,21.92497l30.875,0l8.67505,-8.67497l13.25,0l0,25.59997l37.25,37.27499l12.25,-12.09999l-32.45001,-32.3l0,-35.55l-37.40002,0l-8.54999,8.52501l-16.77502,0l-11.79999,-11.80001l0,-16.65l11.79999,-11.8l16.77502,0l8.54999,8.525l37.40002,0l0,-35.55l32.45001,-32.2996l-21.5,-21.325l43.39996,-43.39999l12.52502,0l-3.27502,-3.27499l0,-41.675l29.57501,-29.60001l41.70001,0l29.57501,29.60001l0,41.675l-3.40002,3.27499l12.65002,0l84.5,84.4996l0,12.65l3.27496,-3.4l41.82501,0l29.45001,29.575l0,41.70002l-29.45001,29.57498l-41.82501,0l-3.27496,-3.4l0,12.65l-84.5,84.5004l-12.65002,0l3.40002,3.27499l0,41.825l-29.57501,29.45001l-41.70001,0zm-130.42499,-217.22541l0,-3l47.34998,0l0,-41.525l24.47504,-24.325l2.125,2.125l-23.45001,23.47501l0,43.25l-50.5,0z" id="svg_9" stroke-opacity="0.70588" stroke-miterlimit="10" stroke-width="1.6" fill-opacity="0.78431" fill="none"/>
     <path stroke="param(fill) red" d="m714.07007,198.55957l-29.57501,-29.45001l0,-41.825l3.27502,-3.275l-12.52502,0l-84.5,-84.4995l0,-12.65l-3.27496,3.4l-41.82501,0l-29.57501,-29.57503l0,-41.69997l29.57501,-29.575l41.82501,0l3.27496,3.4l0,-12.65l36.125,-36.1255l16.375,16.35049l-29.29999,29.3l0,31.45l-27.59998,0l-8.55005,-8.55l-22.47498,0l-16.07501,15.95l0,22.59996l16.07501,15.95001l22.47498,0l8.55005,-8.54999l27.59998,0l0,31.45002l29.29999,29.3l-2.14996,2.125l-30.15002,-30.15l0,-29.72502l-23.32501,0l-8.54999,8.52502l-25.02502,0l-17.77496,-17.62503l0,-25.19997l17.77496,-17.625l25.02502,0l8.54999,8.525l23.32501,0l0,-29.575l28.02502,-28.175l-12.10004,-12.10049l-33.125,33.1505l0,18.65l-7.54999,-7.55l-39.27502,0l-27.72498,27.75l0,39.09996l27.72498,27.90004l39.27502,0l7.54999,-7.7l0,18.65l82.65002,82.6495l18.77496,0l-7.69995,7.67501l0,39.27499l27.75,27.72501l39.25,0l27.75,-27.72501l0,-39.27499l-7.55005,-7.67501l18.65002,0l40.25,-40.2745l-12.09998,-12.075l-35.27502,35.2745l-29.57501,0l0,23.325l8.52502,8.55001l0,25.02499l-17.77502,17.64999l-25.04999,0l-17.625,-17.64999l0,-25.02499l8.52502,-8.55001l0,-23.325l-29.72504,0l-30.14996,-30.2995l2.125,-2.125l29.29999,29.4245l31.45001,0l0,27.47501l-8.55005,8.675l0,22.47501l15.95001,15.92499l22.60004,0l15.94995,-15.92499l0,-22.47501l-8.67499,-8.675l0,-27.47501l31.57501,0l70.82501,-70.8245l0,-31.45002l27.47498,0l8.67499,8.54999l22.47504,0l15.92499,-15.95001l0,-22.59996l-15.92499,-15.95l-22.47504,0l-8.67499,8.55l-27.47498,0l0,-31.45l-29.42499,-29.3l2.125,-2.1255l30.29999,30.3005l0,29.575l23.17499,0l8.70001,-8.525l25.02496,0l17.65002,17.625l0,25.19997l-17.65002,17.62503l-25.02496,0l-8.70001,-8.52502l-23.17499,0l0,29.72502l-35.27502,35.125l12.07501,12.10001l40.27502,-40.25l0,-18.65l7.67499,7.7l39.27496,0l27.72504,-27.90004l0,-39.09996l-27.72504,-27.75l-39.27496,0l-7.67499,7.55l0,-18.65l-82.65002,-82.6505l-18.65002,0l7.55005,-7.675l0,-39.27499l-27.75,-27.72501l-39.25,0l-27.75,27.72501l0,39.27499l7.69995,7.675l-18.77496,0l-40.27502,40.27499l12.10004,12.075l35.27496,-35.275l29.72504,0l0,-23.17499l-8.52502,-8.70001l0,-25.02499l17.625,-17.64999l25.04999,0l17.77502,17.64999l0,25.02499l-8.52502,8.70001l0,23.17499l29.57501,0l30.29999,30.3l-2.125,2.125l-29.29999,-29.425l-31.57501,0l0,-27.47499l8.67499,-8.52501l0,-22.625l-15.94995,-15.92499l-22.60004,0l-15.95001,15.92499l0,22.625l8.55005,8.52501l0,27.47499l-31.45001,0l-34.42499,34.425l12.25,12.0755l29.29999,-29.30051l41.52496,0l0,-47.37498l3,0l0,47.37498l41.52502,0l60.75,60.75051l0,41.525l47.375,0l0,3l-47.375,0l0,41.525l-24.32501,24.325l-2.125,-2.125l23.45001,-23.475l0,-83.5l-59.02502,-59.02551l-83.5,0l-28.44995,28.4505l12.09998,12.075l23.45001,-23.4755l69.29999,0l18.47498,18.5005l-2.125,2.125l-17.64996,-17.4755l-66.85004,0l-22.47498,22.4755l12.09998,12.075l17.47504,-17.5l52.64996,0l37.27502,37.275l0,52.49997l-17.65002,17.62503l12.22504,12.1l22.47498,-22.625l0,-66.7l-17.47498,-17.65l2.125,-2.125l18.34998,18.475l0,69.3l-48.92499,49.075l-69.29999,0l-23.45001,-23.475l-12.09998,12.075l28.44995,28.45l83.5,0l23.47504,-23.45l2.125,2.125l-24.32501,24.325l-41.52502,0l0,47.3745l-3,0l0,-47.3745l-41.52496,0l-60.90002,-60.75l0,-34.425l3.15002,0l0,33.15l28.45001,28.45l12.07495,-12.1l-23.47498,-23.45l0,-69.3l18.5,-18.475l2.125,2.125l-17.625,17.65l0,66.7l47.22498,47.225l66.85004,0l22.625,-22.475l-12.22504,-12.075l-17.5,17.5l-52.64996,0l-37.125,-37.27503l0,-52.49997l12.52496,-12.65l2.125,2.275l-11.64996,11.525l0,50.19997l16.64996,16.65003l12.07501,-12.22504l-11.52496,-11.52499l0,-35.99997l6.54999,-6.55l2.125,2.15l-5.67499,5.675l0,33.44997l23.59998,23.60003l33.45001,0l5.67499,-5.675l2.15002,2.125l-6.55005,6.55l-36,0l-11.64996,-11.675l-12.10004,12.225l16.65002,16.65l50.07501,0l35.39996,-35.42503l0,-50.19997l-16.625,-16.65l-12.09998,12.225l11.67499,11.525l0,35.99997l-6.70001,6.54999l-2.125,-2.15l5.82501,-5.67499l0,-33.44997l-23.59998,-23.6l-30.72504,0l-3,-3l35,0l11.52502,11.675l12.07501,-12.225l-16.625,-16.65l-50.07501,0l-16.65002,16.65l21.32501,21.475l-9.79999,9.8l0,25.19997l17.625,17.62503l25.04999,0l17.77502,-17.62503l0,-25.19997l-17.77502,-17.625l-25.04999,0l-2.70001,2.85l-16.5,-16.5l9.67499,-9.55l44.25,0l9.52502,9.55l-2.125,2.125l-8.67499,-8.675l-41.70001,0l-6.67499,6.55l12.22498,12.225l1.42499,-1.575l27.60004,0l19.5,19.5l0,27.44997l-8.67499,8.67499l12.07495,12.25004l13.80005,-13.80003l0,-41.69997l-8.82501,-8.675l2.14996,-2.125l9.67505,9.525l0,44.24997l-31.30005,31.30003l-44.25,0l-9.67499,-9.55l2.15002,-2.125l8.79999,8.675l41.70001,0l13.64996,-13.65l-12.09998,-12.22504l-8.67499,8.67504l-27.60004,0l-19.47498,-19.50003l0,-27.44997l8.67499,-8.675l-12.09998,-12.1l-13.65002,13.65l0,41.69997l8.67499,8.67499l-2.125,2.12504l-9.54999,-9.52503l0,-44.24997l14.52502,-14.5l-12.10004,-12.25l-19.625,19.65l0,58.44997l41.40002,41.40003l58.45001,0l14.52496,-14.65l2.125,2.125l-15.34998,15.525l-61.04999,0l-43.10004,-43.1l0,-61.05l20.5,-20.475l-12.09998,-12.1l-25.59998,25.475l0,75.25l20.625,20.475l-2.125,2.15l-21.5,-21.475l0,-77.55l26.47498,-26.45l-12.09998,-12.10001l-31.42505,31.45l0,37.275l-41.82495,0l-8.55005,-8.55l-14.22498,0l-10.09998,10.1l0,14.1l10.09998,10.09996l14.22498,0l8.55005,-8.54996l41.82495,0l0,37.275l64.85004,64.9999l37.42499,0l0,41.8246l-8.54999,8.55l0,14.22501l9.97498,9.95l14.22504,0l10.09998,-9.95l0,-14.22501l-8.54999,-8.55l0,-41.8246l37.27496,0l31.45001,-31.4249l-12.09998,-12.1l-26.45001,26.32499l-77.67499,0l-21.35004,-21.34999l2.15002,-2.125l20.47498,20.47499l75.10004,0l53.20001,-53.05l0,-75.25l-25.45001,-25.475l-12.10004,12.1l20.5,20.475l0,61.05l-15.52496,15.5l-2.125,-2.15l14.5,-14.65003l0,-58.44997l-41.25,-41.25l-58.45001,0l-14.65002,14.5l-2.14996,-2.125l15.5,-15.525l61.04999,0l20.47498,20.5l12.10004,-12.1l-25.625,-25.4505l-75.10004,0l-20.47498,20.47549l-2.15002,-2.125l21.35004,-21.35049l77.67499,0l54.90002,54.9005l0,77.55l-26.32501,26.45l12.09998,12.1l31.42499,-31.45l0,-37.275l41.82501,0l8.54999,8.54996l14.22504,0l9.95001,-10.09996l0,-14.1l-9.95001,-10.1l-14.22504,0l-8.54999,8.55l-41.82501,0l0,-37.275l-65,-65.0005l-37.27496,0l0,-41.825l8.54999,-8.55l0,-14.22501l-10.09998,-9.95l-14.22504,0l-9.97498,9.95l0,14.22501l8.54999,8.55l0,41.825l-37.42499,0l-26.29999,26.45l-2.15002,-2.125l27.32501,-27.325l35.54999,0l0,-37.27499l-8.52502,-8.82501l0,-16.625l11.80005,-11.825l16.64996,0l11.79999,11.825l0,16.625l-8.52496,8.82501l0,37.27499l35.54999,0l32.29999,32.3l12.10004,-12.1l-37.27502,-37.39999l-25.59998,0l0,-13.25l8.52496,-8.52501l0,-30.875l-21.77496,-21.89999l-30.85004,0l-21.92499,21.89999l0,30.875l8.54999,8.52501l0,13.25l-25.47498,0l-32.42499,32.42499l-2.15002,-2.125l33.29999,-33.29999l23.75,0l0,-8.95l-8.52496,-8.55l0,-33.425l23.59998,-23.625l33.45001,0l23.59998,23.625l0,33.425l-8.52496,8.55l0,8.95l23.75,0l78.52496,78.52549l0,23.75l8.95001,0l8.54999,-8.525l33.42499,0l23.625,23.6l0,33.44997l-23.625,23.60003l-33.42499,0l-8.54999,-8.525l-8.95001,0l0,23.75l-33.29999,33.14999l-2.125,-2.15l32.42499,-32.27499l0,-25.60004l13.25,0l8.52502,8.67504l30.875,0l21.89996,-21.92504l0,-30.84996l-21.89996,-21.925l-30.875,0l-8.52502,8.675l-13.25,0l0,-25.6l-37.39996,-37.2755l-12.10004,12.10049l32.29999,32.3l0,35.55l37.55005,0l8.54999,-8.525l16.625,0l11.82501,11.8l0,16.65l-11.82501,11.79997l-16.625,0l-8.54999,-8.525l-37.55005,0l0,35.55003l-66.72498,66.7249l-35.54999,0l0,37.54961l8.52496,8.55l0,16.625l-11.79999,11.825l-16.64996,0l-11.80005,-11.825l0,-16.625l8.52502,-8.55l0,-37.54961l-35.54999,0l-32.29999,-32.2999l-12.22504,12.09999l37.40002,37.39951l25.47498,0l0,13.25l-8.54999,8.52501l0,30.875l21.92499,21.89999l30.85004,0l21.77496,-21.89999l0,-30.875l-8.52496,-8.52501l0,-13.25l25.59998,0l32.27502,-32.4245l2.14996,2.125l-33.14996,33.2995l-23.75,0l0,8.95l8.52496,8.55l0,33.425l-23.59998,23.625l-33.45001,0l-23.59998,-23.625l0,-33.425l8.52496,-8.55l0,-8.95l-23.75,0l-78.52496,-78.5245l0,-23.75l-9.10004,0l-8.54999,8.525l-33.42499,0l-23.60004,-23.60003l0,-33.44997l23.60004,-23.6l33.42499,0l8.54999,8.525l9.10004,0l0,-23.75l26.02496,-26.0255l2.15002,2.1255l-25.17499,25.175l0,25.6l-13.25,0l-8.67505,-8.675l-30.875,0l-21.75,21.925l0,30.84996l21.75,21.92504l30.875,0l8.67505,-8.67504l13.25,0l0,25.60004l37.25,37.27499l12.25,-12.09999l-32.45001,-32.3l0,-35.55003l-37.40002,0l-8.54999,8.525l-16.77502,0l-11.79999,-11.79997l0,-16.65l11.79999,-11.8l16.77502,0l8.54999,8.525l37.40002,0l0,-35.55l32.45001,-32.3l-21.5,-21.3255l43.39996,-43.39999l12.52502,0l-3.27502,-3.27499l0,-41.675l29.57501,-29.60001l41.70001,0l29.57501,29.60001l0,41.675l-3.40002,3.27499l12.65002,0l84.5,84.5005l0,12.65l3.27496,-3.4l41.82501,0l29.45001,29.575l0,41.69997l-29.45001,29.57503l-41.82501,0l-3.27496,-3.4l0,12.65l-84.5,84.4995l-12.65002,0l3.40002,3.275l0,41.825l-29.57501,29.45001l-41.70001,0l0,0zm-130.42499,-217.22451l0,-3l47.34998,0l0,-41.525l24.47504,-24.325l2.125,2.125l-23.45001,23.475l0,43.25l-50.5,0l0,0z" id="svg_8" stroke-miterlimit="10" stroke-width="2" fill="#cc0000"/>
    </g>
   </g>
  </g>
 </g>
</svg>