<svg width="124" height="124" xmlns="http://www.w3.org/2000/svg">
 <metadata id="metadata3006">image/svg+xmlimage/svg+xml</metadata>

 <g id="g3008">
  <title>Layer 1</title>
  <metadata id="svg_15">image/svg+xml</metadata>

  <!-- Created with SVG-edit - http://svg-edit.googlecode.com/ -->
  <g id="svg_7">
   <path stroke="param(fill) #000" id="svg_6" d="m99.57178,95.13197l0,-45.38772l9.29743,0l0,-12.65081l0.68459,0l-0.68459,-0.28028l0,-2.8733l-7.01637,0l-39.29214,-16.09022l-40.03753,16.09022l-7.19619,0l0,2.8922l-0.65078,0.26158l0.65078,0l0,12.65081l8.71422,0l0,45.38772l-4.07334,0l-5.52165,11.01819l95.06274,-0.19973l-5.17284,-10.81866l-4.76434,0l0,0zm-53.72416,-45.38772l0,45.38772l-13.1824,0l0,-45.38772l13.1824,0zm8.62386,0l14.67019,0l0,45.38772l-14.67019,0l0,-45.38772zm23.29406,0l13.18258,0l0,45.38772l-13.18258,0l0,-45.38772z" stroke-width="1" fill="param(fill) #FFF"/>
  </g>
 </g>
</svg>