<svg width="124" height="124" xmlns="http://www.w3.org/2000/svg">
 <metadata id="metadata3006">image/svg+xmlimage/svg+xml</metadata>
 <g id="g3008">
  <title>Layer 1</title>
  <g id="svg_10">
   <g id="svg_7" transform="matrix(1.1518 0 0 0.946666 -130.131 -100.303)">
    <path d="m174.79271,152.46562c0,-4.46002 -2.8324,-8.28003 -6.7708,-9.76605c1.64391,-1.84198 2.6042,-4.23895 2.6042,-6.90198c0,-5.75299 -4.66371,-10.41602 -10.4167,-10.41602c-0.81979,0 -1.57851,0.07904 -2.3437,0.258c-0.87219,-4.87201 -5.034,-8.594 -10.1563,-8.592c-5.1223,0 -9.2841,3.72198 -10.1562,8.594c-0.76529,-0.17903 -1.524,-0.258 -2.3438,-0.258c-5.75301,0 -10.41669,4.66399 -10.41669,10.41602c0,2.66295 0.9603,5.06 2.6042,6.90198c-3.9384,1.48602 -6.7708,5.30402 -6.7708,9.76404c0,5.75 4.1666,10.41998 10.41659,10.41998l2.0834,0l8.3333,14.58002l0,10.41992c0,2.08008 2.0833,4.16002 4.1667,4.16002l4.1666,0c2.0834,0 4.1667,-2.07996 4.1667,-4.16002l0,-10.41992l8.3333,-14.58002l2.9948,-0.06c5.33861,0.06 9.5052,-4.92004 9.5052,-10.36l0,0l0,0.00002zm-33.3333,10.41998l12.5,0l-4.1667,8.33002l-4.1666,0l-4.1667,-8.33002z" id="svg_8" stroke-width="2" fill-rule="nonzero" fill="param(fill) black"/>
   </g>
  </g>
  <g id="svg_19">
   <g id="svg_16" transform="matrix(0.541333 0 0 0.503333 -17.0581 -22.5968)">
    <path d="m128.54333,190.36908c-1.05416,0 -1.24999,2.33165 -1.24999,4.16669l0,8.3333c0,8.46332 8.33334,12.76039 16.66668,12.50003l0,33.33336c-4.16669,-8.33336 -16.66668,-20.83339 -29.16669,-16.66675c0,0 10.41669,25 31.25002,25c20.83333,0 31.24998,-25 31.24998,-25c-12.5,-4.16664 -25,8.33339 -29.16666,16.66675l0,-33.33336c8.33333,0.2583 16.66666,-4.03671 16.66666,-12.50003l0,-8.3333c0,-1.83504 -0.19498,-4.16669 -1.25,-4.16669c-0.80383,0 -1.77341,0.94 -2.91666,2.08331l-6.25,6.25006l-6.25,-7.03131c-0.65239,-0.7337 -1.02899,-1.30206 -2.08333,-1.30206c-1.0544,0 -1.43095,0.56836 -2.08333,1.30206l-6.25,7.03131l-6.25,-6.25006c-1.14325,-1.14331 -2.11285,-2.08331 -2.9167,-2.08331l0.00002,0z" id="svg_17" stroke-width="2" fill-rule="nonzero" fill="param(fill) black"/>
   </g>
  </g>
  <metadata id="svg_42">image/svg+xml</metadata>
  <g id="svg_44">
   <g id="svg_36" transform="matrix(0.083095 0 0 0.0914283 44.5268 15.6788)">
    <path d="m767.58752,370.70215c50,100 -100,100 -100,0c0,0 0,0 0,-50c200,-150 200,-50 100,50z" id="svg_41" stroke-dashoffset="0" stroke-miterlimit="4" marker-end="none" marker-mid="none" marker-start="none" stroke-linejoin="round" stroke-width="3" fill-rule="evenodd" fill="param(fill) black"/>
    <path d="m672.58752,310.70215c10,25 2.39392,109.4325 -5,110c-7.39392,0.56738 -15,-85 -5,-110c-15,-10 -15,-20 5,-20c20,0 20,10 5,20z" id="svg_40" stroke-dashoffset="0" stroke-miterlimit="4" marker-end="none" marker-mid="none" marker-start="none" stroke-width="2.65246" fill-rule="evenodd" fill="param(fill) black"/>
    <path d="m567.58752,370.70215c-50,100 100,100 100,0c0,0 0,0 0,-50c-199.99997,-150 -199.99997,-50 -100,50z" id="svg_39" stroke-dashoffset="0" stroke-miterlimit="4" marker-end="none" marker-mid="none" marker-start="none" stroke-linejoin="round" stroke-width="3" fill-rule="evenodd" fill="param(fill) black"/>
    <path stroke="param(fill) black" d="m672.58752,295.70215c5,-35 45,-45.00002 45,-45.00002" id="svg_38" stroke-miterlimit="4" stroke-linecap="round" stroke-width="2" fill-rule="evenodd" fill="none"/>
    <path stroke="param(fill) black" d="m662.58752,295.70215c-5,-35 -45,-45.00002 -45,-45.00002" id="svg_37" stroke-miterlimit="4" stroke-linecap="round" stroke-width="2" fill-rule="evenodd" fill="none"/>
   </g>
  </g>
  <g id="svg_1">
   <g id="svg_3" transform="matrix(0.541333 0 0 0.503333 -17.0581 -22.5968)">
    <path id="svg_4" d="m192.27498,176.46185c-1.0542,0 -1.25,2.3316 -1.25,4.16669l0,8.33325c0,8.46332 8.33331,12.76044 16.66669,12.50006l0,33.33337c-4.16669,-8.33337 -16.66669,-20.83344 -29.16669,-16.66681c0,0 10.41669,25 31.25,25c20.83331,0 31.25,-25 31.25,-25c-12.5,-4.16663 -25,8.33344 -29.16669,16.66681l0,-33.33337c8.33331,0.2583 16.66669,-4.03674 16.66669,-12.50006l0,-8.33325c0,-1.83508 -0.19501,-4.16669 -1.25,-4.16669c-0.80383,0 -1.77344,0.93994 -2.91669,2.08331l-6.25,6.25006l-6.25,-7.03137c-0.6524,-0.7337 -1.02899,-1.302 -2.08331,-1.302c-1.05438,0 -1.43097,0.5683 -2.08331,1.302l-6.25,7.03137l-6.25,-6.25006c-1.14325,-1.14337 -2.11285,-2.08331 -2.91669,-2.08331l0,0z" stroke-width="2" fill-rule="nonzero" fill="param(fill) black"/>
   </g>
  </g>
 </g>
</svg>