<svg width="124" height="124" xmlns="http://www.w3.org/2000/svg">
 <metadata id="metadata3006">image/svg+xmlimage/svg+xml</metadata>

 <g id="g3008">
  <title>Layer 1</title>
  <path fill="none" stroke-width="8" id="path3023" d="m6.11988,27.7288l55.56803,-16.74575l56.19221,15.32064" stroke="param(fill) orange"/>
  <g id="svg_14">
   <g transform="matrix(0.872891 0 0 0.850149 -96.8579 -87.6279)" id="svg_13">
    <title>Calque 1</title>
    <path fill="param(fill) orange" d="m204.05254,159.7247c4.10199,0 7.422,-3.31999 7.422,-7.422c0,-4.078 -3.32001,-7.39799 -7.422,-7.39799c-4.078,0 -7.39801,3.31999 -7.39801,7.39799c0,4.10201 3.32001,7.422 7.39801,7.422z" id="svg_11"/>
    <path fill="param(fill) orange" d="m209.56853,161.3887l-10.81201,0l-18.43799,-18.438c-1.438,-1.508 -3.828,-1.586 -5.336,-0.117c-1.51601,1.438 -1.586,3.828 -0.14801,5.34401l19.25801,19.28899l0,63.90611c0,2.31999 1.85201,4.17999 4.14799,4.17999c2.32001,0 4.172,-1.85899 4.172,-4.17999l0,-34.6561l3.375,0l0.02301,34.6561c0,2.31999 1.875,4.17999 4.172,4.17999s4.14799,-1.85899 4.14799,-4.17999l-0.02299,-63.90611l19.26599,-19.28899c1.438,-1.51601 1.367,-3.90601 -0.14799,-5.34401c-1.51601,-1.46899 -3.90599,-1.39099 -5.34399,0.117l-18.313,18.438l0,0l0,0z" id="svg_10"/>
    <path fill="param(fill) orange" d="m170.38852,189.58369c-1.125,-1.14799 -2.65599,-1.828 -4.36699,-1.828l-15.515,0c-1.711,0 -3.25,0.68001 -4.34401,1.828l-15.55499,15.54701c-1.438,1.51599 -1.39101,3.90599 0.125,5.34399c1.508,1.44499 3.92999,1.39799 5.34399,-0.117l12.062,-12.05499l0,16.10199l-13.53099,0c-2.48401,0 -4.492,2.008 -4.492,4.5c0,1.289 0.492,2.438 1.367,3.26601l15.23399,15.2341c1.34401,1.97701 3.98401,2.617 6.086,1.39099c2.21901,-1.26599 2.953,-4.07799 1.68001,-6.27299l-8.688,-8.66409l0.172,0.02299l24.961,0l-8.71899,8.66411c-1.242,2.20299 -0.508,5.008 1.688,6.28099c2.10199,1.21901 4.758,0.578 6.10199,-1.39799l15.226,-15.23511c0.88301,-0.82799 1.367,-1.97701 1.367,-3.26599c0,-2.492 -2,-4.492 -4.49199,-4.492l-13.492,0l0,-15.938l11.836,11.88301c1.438,1.51599 3.82799,1.56198 5.34399,0.11699c1.51601,-1.43799 1.56201,-3.82799 0.125,-5.34401l-15.524,-15.56999l0,0z" id="svg_9"/>
    <path fill="param(fill) orange" d="m158.41252,186.16971c4.09401,0 7.39101,-3.32001 7.39101,-7.39801c0,-4.10199 -3.297,-7.39799 -7.39101,-7.39799c-4.078,0 -7.39799,3.29701 -7.39799,7.39799c-0.00101,4.078 3.31999,7.39801 7.39799,7.39801z" id="svg_8"/>
   </g>
  </g>
 </g>
</svg>