<svg width="282" height="201" xmlns="http://www.w3.org/2000/svg">
 <g>
  <title>Layer 1</title>
  <g id="Layer_1">
   <g id="svg_1">
    <g id="surface0">
     <path id="svg_3" fill="param(fill) blue" d="m2.11712,27.45943c3.292,-4.745 8.785,-7.999 14.615,-8.168c14.142,-1.258 28.313,9.71301 30.247,23.839c0.607,3.048 -0.672,6.02299 -1.101,9.002c6,4.009 12.297,7.753 18.745,11.019c20.03201,5.181 41.814,4.14301 61.06499,-3.606c6.58401,-2.765 12.841,-7.48901 20.26101,-7.331c6.696,0.548 8.601,9.882 4.42499,14.344c-4.71501,5.241 -12.05501,6.45 -18.623,7.796c-5.02399,0.797 -9.997,1.964 -15.064,2.45899c-11.18999,0.22401 -22.515,0.57301 -33.522,-1.82899c-0.035,0.842 -0.104,2.526 -0.14,3.369c-3.077,1.81599 -6.145,0.039 -8.72701,-1.75c-7.073,-4.303 -14.162,-8.58701 -21.446,-12.527c-3.731,-2.02 -6.904,-4.915 -10.739,-6.767c-3.729,3.045 -8.449,5.03899 -13.313,4.937c-11.382,0.249 -22.322,-6.978 -27.075,-17.233c-2.264,-5.53799 -2.468,-12.197 0.392,-17.554z"/>
     <path id="svg_5" fill="#FFFFFF" d="m15.35813,25.68344c11.92,-2.25401 24.575,7.27 25.642,19.378c-0.239,4.269 -2.707,8.703 -6.939,10.099c-9.413,3.137 -20.221,-1.964 -25.312,-10.145c-2.921,-4.272 -3.414,-10.144 -0.967,-14.737c1.87,-2.377 4.619,-3.99799 7.576,-4.59499l0,-0.00001z"/>
     <path id="svg_7" fill="param(fill) blue" d="m203.96413,48.38044c5.64,-2.335 11.978,-2.57301 17.974,-1.836c10.47702,1.96999 20.87001,5.41599 29.645,11.611c4.95999,3.875 9.789,8.724 11.08798,15.126c3.086,14.47399 -2.61899,30.16 -13.905,39.65c-2.78,1.97699 -4.92299,5.879 -8.68999,5.66698c6.87497,-9.03098 10.26299,-20.39799 10.31099,-31.688c0.00499,-5.23399 -2.63498,-10.29199 -7.04701,-13.14199c-10.70299,-7.35001 -24.409,-6.529 -36.23398,-10.926c-3.69902,-1.167 -6.25801,-4.328 -7.442,-7.917c-0.924,-2.997 1.77298,-5.496 4.3,-6.545z"/>
     <path id="svg_9" fill="param(fill) blue" d="m196.41913,107.87643c3.58899,-7.11298 14.757,-6.396 18.925,-0.272c3.53499,4.709 3.91399,10.828 4.51199,16.468c0.955,13.41501 0.11501,27.341 5.024,40.12001c4.245,9.896 13.77399,15.98799 23.12601,20.457c10.72598,5.433 22.539,8.00998 33.72198,12.25c-2.38,2.905 -6.612,1.39499 -9.78198,1.06499c-11.38,-2.558 -22.75702,-5.12799 -34.13501,-7.681c-10.07402,-2.48199 -20.65001,-6.707 -26.668,-15.64c-8.186,-15.088 -13.76701,-31.597 -16.36499,-48.567c-0.52603,-6.03299 -1.23503,-12.62099 1.64098,-18.2l0.00002,0z"/>
     <path id="svg_11" fill="param(fill) blue" d="m173.87312,105.69144c4.395,-1.51398 9.65601,-2.25098 13.82401,0.289c2.72,1.489 3.78099,4.619 4.843,7.336c1.644,4.957 -1.427,10.118 -5.263,13.119c-5.43001,4.14999 -11.51601,7.31999 -17.455,10.66499c-33.64801,19.224 -67.917,37.32701 -101.78,56.166c-5.821,3.33301 -12.01099,5.963 -18.349,8.14c-0.462,-0.377 -0.923,-0.75 -1.383,-1.11899c2.119,-1.07002 4.217,-2.19902 6.128,-3.61401c29.266,-23.435 58.737,-46.62399 88.071,-69.97899c9.879,-7.77901 19.59,-16.19901 31.364,-21.00301l0,0.00001z"/>
    </g>
   </g>
   <g id="svg_12">
    <path id="svg_13" fill="param(fill) blue" d="m25.23412,71.33644c4.988,0 9.031,4.043 9.031,9.03099s-4.043,9.03101 -9.031,9.03101s-9.031,-4.043 -9.031,-9.03101s4.043,-9.03099 9.031,-9.03099m0,6c-1.671,0 -3.031,1.36 -3.031,3.03099s1.36,3.03101 3.031,3.03101s3.031,-1.36 3.031,-3.03101s-1.359,-3.03099 -3.031,-3.03099l0,0z"/>
   </g>
   <circle fill="param(fill) blue" id="svg_14" cx="160.27713" cy="21.69944" r="21.69922"/>
  </g>
 </g>
</svg>