<svg width="283" height="234" xmlns="http://www.w3.org/2000/svg">
 <g>
  <title>Layer 1</title>
  <path fill="none" stroke="#000000" stroke-width="0.1" stroke-miterlimit="10" d="m59.142,0c1.72,0.841 3.381,1.826 4.797,3.128c19.416,17.56 38.425,35.567 57.822,53.145c6.713,5.907 13.11099,12.159 19.504,18.409c2.394,2.594 4.98399,5.079 6.83301,8.113c2.68599,4.528 0.52399,10.967 -4.28001,13.054c-6.534,2.359 -13.681,-0.492 -18.17198,-5.468c-11.60001,-12.925 -21.897,-26.927 -32.192,-40.894c-10.094,-13.351 -19.956,-26.875 -29.463,-40.64899c-1.714,-2.884 -3.993,-5.537 -4.849,-8.838l0,-0.00001l0,0l-0.00001,0z" id="svg_2"/>
  <path d="m59.142,0c1.72,0.841 3.381,1.826 4.797,3.128c19.416,17.56 38.425,35.567 57.822,53.145c6.713,5.907 13.11099,12.159 19.504,18.409c2.394,2.594 4.98399,5.079 6.83301,8.113c2.68599,4.528 0.52399,10.967 -4.28001,13.054c-6.534,2.359 -13.681,-0.492 -18.17198,-5.468c-11.60001,-12.925 -21.897,-26.927 -32.192,-40.894c-10.094,-13.351 -19.956,-26.875 -29.463,-40.64899c-1.714,-2.884 -3.993,-5.537 -4.849,-8.838l0,-0.00001l0,0l-0.00001,0z" id="svg_3" fill="param(fill) blue"/>
  <path d="m60.49,76.182c1.582,-4.805 6.226,-7.51 10.552,-9.509c17.012,5.179 28.705,19.537 39.335,32.93501c4.92,6.594 10.626,13.966 9.779,22.701c-1.159,4.021 -3.664,7.51301 -6.234,10.759c-12.007,14.147 -28.13699,23.925 -44.338,32.556c-7.064,3.58 -13.848,7.75101 -21.108,10.92001l-1.534,-0.09201c4.406,-5.70099 10.152,-10.15599 14.86,-15.584c11.881,-13.666 23.44201,-27.627 36.237,-40.461c-5.812,-4.42001 -12.491,-7.589 -18.064,-12.33801c-6.534,-5.444 -12.734,-11.568 -16.975,-19.009c-2.228,-3.82201 -3.589,-8.484 -2.51,-12.87801l0,0l0,-0.00001z" id="svg_5" fill="param(fill) blue"/>
  <path d="m174.62801,74.921c7.23001,-0.674 14.87099,2.301 19.409,8.052c3.19099,3.605 4.60202,8.403 5.117,13.103c-0.285,5.451 -2.22701,10.969 -6.11101,14.91c-5.90399,6.514 -16.00999,8.734 -24.13699,5.427c-11.119,-3.803 -17.664,-18.003 -12.11101,-28.667c3.07401,-7.148 10.205,-11.916 17.83301,-12.825l0,0z" id="svg_7" fill="param(fill) blue"/>
  <path d="m0,180.416c23.629,-0.011 47.259,0.022 70.887,-0.02299c2.548,-0.304 3.966,2.36299 3.73,4.582c0.00401,12.43199 0.021,24.86499 -0.022,37.297c10.892,-4.24399 22.478,-8.75699 34.385,-7.049c11.72099,1.47099 20.92199,11.19299 33.00599,10.99599c16.658,-0.30298 29.45201,-13.85399 45.953,-14.868c10.733,-0.931 20.638,4.132 30.00499,8.66501c8.09201,3.92299 16.854,8.838 26.17401,6.631c13.63701,-2.347 22.91701,-15.728 37.11501,-15.98c0.599,1.42999 1.71301,2.909 1.02899,4.543c-0.78,1.168 -2.20099,1.42799 -3.44199,1.797c-9.62,2.29701 -16.73102,9.871 -25.85301,13.32701c-5.959,2.608 -12.634,3.511 -19.06999,2.59801c-12.71701,-2.54201 -23.25201,-10.90901 -35.61502,-14.442c-8.95099,-2.77901 -18.34798,0.284 -26.45998,4.17599c-9.66902,4.67 -19.696,10.168 -30.785,9.59299c-12.916,0.35501 -22.73,-10.222 -35.358,-11.271c-12.358,-0.632 -23.27301,6.00299 -34.966,8.75299c-1.06,-1.05099 -2.481,-2.10199 -2.286,-3.789c-0.124,-13.175 -0.001,-26.355 -0.047,-39.53299c-22.793,-0.002 -45.585,0 -68.378,0l0,-6.00301l-0.002,0l0,0z" id="svg_9" fill="param(fill) blue"/>
 </g>
</svg>