<svg width="300" height="300" xmlns="http://www.w3.org/2000/svg">

 <g>
  <title>Layer 1</title>
  <g id="g7">
   <g id="surface0">
    <path fill="param(fill) blue" d="m163.59,50.89c7.242,-0.69 14.90401,2.288 19.44701,8.051c3.188,3.585 4.577,8.364 5.117,13.04c-0.21201,7.188 -3.854,14.21799 -9.873,18.23399c-5.979,3.839 -13.79501,4.888 -20.42601,2.145c-11.06999,-3.822 -17.593,-17.963 -12.082,-28.604c3.063,-7.158 10.185,-11.946 17.817,-12.866z" id="path12"/>
    <path fill="param(fill) blue" d="m67.939,79.923c16.462,-7.764 35.76,-8.629 53.077,-3.264c2.838,2.148 5.03899,4.944 6.25499,8.30901c-0.396,3.53699 -1.63499,7.271 -4.72099,9.356c-3.64101,2.662 -8.464,2.075 -12.62801,1.315c-8.15599,-1.93 -16.466,-3.967 -24.917,-3.309c-16.976,1.485 -32.962,8.415 -47.519,16.973c-5.635,2.902 -10.179,7.494 -15.796,10.402c3.213,-7.02 8.248,-12.953 13.976,-18.052c10.25,-7.944 19.986,-16.987 32.273,-21.73z" id="path16"/>
    <path fill="param(fill) blue" d="m85.046,164.17599c-3.54,-7.795 3.76,-17.211 12.01701,-16.72699c7.03299,0.431 14.006,1.646 20.823,3.41699c4.007,1.314 8.67999,-0.84799 12.319,1.789c2.186,1.161 2.521,4.131 4.804,5.164c8.957,4.98399 17.328,12.715 19.48399,23.133c2.155,17.548 -1.814,35.66 -10.116,51.19901c-3.60001,6.936 -7.67999,13.60899 -11.27699,20.547c1.27299,-16.21899 5.35599,-32.321 4.202,-48.67c-1.211,-6.605 -1.239,-14.97 -7.696,-18.888c-4.756,9.7 -9.17601,19.839 -16.563,27.896c-7.498,7.593 -15.308,15.063 -24.514,20.569c-16.668,9.666 -35.703,15.017 -54.844,16.56201c6.733,-3.66 14.452,-5.26501 20.891,-9.53001c12.359,-7.99699 24.369,-16.88899 33.967,-28.13899c8.045,-9.883 11.95399,-22.3 14.836,-34.515c-7.41,-2.29001 -15.28799,-6.157 -18.333,-13.80701z" id="path24"/>
   </g>
  </g>
  <g transform="matrix(-0.1319426,-0.9912574,0.9912574,-0.1319426,80.457501,345.46631)" id="g2433">
   <path fill="param(fill) blue" d="m189.05302,99.21729c3.45801,-4.062 9.354,-2.91901 13.74901,-1.248c1.233,1.694 2.743,3.262 3.41699,5.296c2.38901,6.455 3.707,13.248 4.617,20.054c3.567,19.23399 6.104,38.642 8.207,58.086c0.922,5.92599 1.117,11.939 0.73199,17.922c-1.12799,-1.48799 -2.10399,-3.09399 -2.76199,-4.84399c-10.52299,-25.30501 -21.588,-50.47101 -29.10201,-76.873c-2.022,-5.901 -3.39499,-13.274 1.142,-18.393z" id="path20"/>
   <path fill="param(fill) blue" d="m230.48451,215.58835c5.52271,0 9.99884,4.47716 9.99884,9.99886c0,5.52168 -4.47664,9.99884 -9.99884,9.99884c-5.5222,0 -9.99886,-4.47716 -9.99886,-9.99884c0,-5.5217 4.47615,-9.99886 9.99886,-9.99886" id="path2410"/>
  </g>
 </g>
</svg>