<svg width="234" height="246" xmlns="http://www.w3.org/2000/svg">
 <g>
  <title>Layer 1</title>
  <g id="Layer_1">
   <g id="svg_1">
    <g id="surface0">
     <path id="svg_3"  fill="param(fill) #FFF" d="m187.27579,0.09894c7.242,-0.691 14.895,2.293 19.438,8.053c3.188,3.588 4.58,8.37 5.118,13.048c-0.276,5.476 -2.22,11.029 -6.13199,14.98c-5.91501,6.511 -16.035,8.712 -24.16,5.393c-11.07001,-3.818 -17.60001,-17.953 -12.09401,-28.597c3.06099,-7.162 10.18901,-11.961 17.83,-12.877z"/>
     <path id="svg_5" fill="param(fill) #FFF" d="m107.86278,34.76294c10.61301,-0.753 21.235,-2.333 31.89301,-1.574c4.785,0.824 9.88899,3.06 12.40199,7.435c2.09801,4.044 -0.974,8.492 -4.23799,10.794c-5.65001,2.766 -12.159,2.569 -18.295,2.561c-13.65099,0.23 -27.26201,-1.214 -40.786,-2.92c-20.792,-1.622 -41.494,-4.191 -62.208,-6.541c-1.525,-0.113 -3.011,-0.498 -4.445,-1.015c10.557,-2.939 21.69201,-2.99 32.54,-4.277c17.768,-0.677 35.452,-2.672 53.13699,-4.463z"/>
     <path id="svg_7" fill="param(fill) #FFF" d="m199.94878,58.28394c1.405,-4.971 7.334,-6.574 11.93001,-6.181c8.73799,3.82401 14.31299,12.273 16.873,21.197c1.69101,6.679 5.53299,12.84901 5.39099,19.922c-0.13699,3.735 -0.50801,7.644 -2.27101,11.00099c-4.60199,6.651 -12.26198,10.121 -19.707,12.57001c-10.838,3.306 -22.19899,4.214 -33.44099,5.04401c-2.23399,0.099 -4.563,0.433 -6.69499,-0.43701c2.541,-2.78 6.30899,-3.786 9.66602,-5.218c5.008,-2.073 10.23398,-3.58899 15.18298,-5.80899c7.25299,-3.88 14.18799,-8.35001 20.786,-13.265c-1.20699,-6.691 -5.89301,-11.86301 -9.59299,-17.304c-4.28799,-6.32401 -9.28198,-13.478 -8.12199,-21.52l-0.00002,-0.00001z"/>
     <path id="svg_9" fill="param(fill) #FFF" d="m126.32079,97.07194c2.88499,-0.42599 5.38898,1.424 7.939,2.45699c2.38199,0.705 2.87999,3.49501 2.795,5.651c-0.558,5.30901 -2.927,10.265 -5.92599,14.62001c-8.88501,13.42999 -20.49001,24.759 -32.369,35.51199c-3.76801,3.25998 -9.132,5.31299 -14.00301,3.334c-3.633,-0.84799 -5.794,-4.782 -5.17699,-8.35301c1.141,-6.09499 4.238,-11.614 7.63799,-16.71999c5.731,-7.506 11.01501,-15.395 17.58401,-22.21701c5.83199,-6.32001 12.57599,-13.10899 21.519,-14.284l-0.00002,0.00001z"/>
     <path id="svg_11" fill="param(fill) #FFF" d="m143.78278,118.61093c5.043,-2.74301 11.504,-3.757 16.56599,-0.507c3.244,3.15701 3.834,8.18501 2.48,12.36099c-2.961,9.88301 -9.26599,18.29401 -15.55298,26.30701c-9.20201,11.71701 -20.16801,21.83 -30.74401,32.263c-12.7,11.965 -24.556,24.843 -37.965,36.037c-6.865,5.806 -13.357,12.05399 -19.184,18.90799c-0.93501,1.216 -2.397,1.72702 -3.811,2.147c1.893,-5.104 4.979,-9.68298 7.552,-14.46201c19.03701,-29.58798 37.016,-59.87999 57.394,-88.58299c6.888,-8.85098 12.879,-19.26898 23.265,-24.47099z"/>
    </g>
   </g>
   <g id="svg_12">
    <path id="svg_13" fill="param(fill) #FFF" d="m22.96278,177.35794c12.682,0 22.963,10.28099 22.963,22.963s-10.281,22.963 -22.963,22.963s-22.963,-10.28099 -22.963,-22.963s10.281,-22.963 22.963,-22.963m0,6c-9.354,0 -16.963,7.60899 -16.963,16.963s7.609,16.963 16.963,16.963s16.963,-7.60898 16.963,-16.963s-7.609,-16.963 -16.963,-16.963l0,0z"/>
   </g>
  </g>
 </g>
</svg>