<svg width="124" height="124" xmlns="http://www.w3.org/2000/svg">
 <g>
  <title>Calque 1</title>
  <path id="svg_3" d="m84.773,29.63291c4.102,0 7.422,-3.32 7.422,-7.422c0,-4.078 -3.32,-7.398 -7.422,-7.398c-4.078,0 -7.398,3.32 -7.398,7.398c0,4.102 3.32,7.422 7.398,7.422z" fill="param(fill) #FFF"/>
  <path id="svg_4" d="m90.289,31.29691l-10.812,0l-18.438,-18.438c-1.438,-1.508 -3.828,-1.586 -5.336,-0.117c-1.516,1.438 -1.586,3.828 -0.148,5.344l19.258,19.289l0,63.906c0,2.32 1.852,4.18 4.14799,4.18c2.32,0 4.172,-1.85899 4.172,-4.18l0,-34.656l3.375,0l0.02299,34.656c0,2.32 1.875,4.18 4.172,4.18s4.14799,-1.85899 4.14799,-4.18l-0.02299,-63.906l19.266,-19.289c1.438,-1.516 1.367,-3.906 -0.148,-5.344c-1.516,-1.469 -3.906,-1.391 -5.34399,0.117l-18.313,18.438l0.00002,0z" fill="param(fill) #FFF"/>
  <path id="svg_5" d="m51.109,59.49191c-1.125,-1.148 -2.656,-1.828 -4.367,-1.828l-15.515,0c-1.711,0 -3.25,0.68 -4.344,1.828l-15.555,15.547c-1.438,1.516 -1.391,3.906 0.125,5.34399c1.508,1.44501 3.93,1.398 5.344,-0.117l12.062,-12.055l0,16.102l-13.531,0c-2.484,0 -4.492,2.008 -4.492,4.5c0,1.289 0.492,2.438 1.367,3.26601l15.234,15.23399c1.344,1.97701 3.984,2.617 6.086,1.39101c2.219,-1.26601 2.953,-4.078 1.68,-6.27299l-8.688,-8.664l0.172,0.023l24.961,0l-8.719,8.66399c-1.242,2.203 -0.508,5.008 1.688,6.28101c2.102,1.21899 4.758,0.578 6.102,-1.398l15.226,-15.23499c0.883,-0.828 1.367,-1.97701 1.367,-3.26601c0,-2.492 -2,-4.492 -4.492,-4.492l-13.492,0l0,-15.938l11.836,11.883c1.438,1.516 3.828,1.562 5.344,0.117c1.516,-1.438 1.562,-3.828 0.125,-5.34399l-15.524,-15.57z" fill="param(fill) #FFF"/>
  <path id="svg_6" d="m39.133,56.07791c4.094,0 7.391,-3.32 7.391,-7.398c0,-4.102 -3.297,-7.398 -7.391,-7.398c-4.078,0 -7.398,3.297 -7.398,7.398c-0.001,4.078 3.32,7.398 7.398,7.398z" fill="param(fill) #FFF"/>
 </g>
</svg>