<svg width="124" height="124" xmlns="http://www.w3.org/2000/svg">
 <metadata id="metadata3006">image/svg+xmlimage/svg+xml</metadata>

 <g id="g3008">
  <title>Layer 1</title>
  <metadata id="svg_15">image/svg+xml</metadata>

  <!-- Created with SVG-edit - http://svg-edit.googlecode.com/ -->
  <g id="svg_17">
   <g display="none" transform="matrix(9.29284 0 0 8.98685 -210.409 -110.597)" id="svg_8">
    <rect stroke="#757575" height="10" width="10" stroke-width="0.1" fill="none" y="13.49284" x="13.14929" id="svg_10"/>
    <rect stroke="#757575" height="8" width="8" stroke-width="0.1" fill="none" y="14.49284" x="14.14929" id="svg_9"/>
   </g>
   <path stroke="param(fill) #000" id="svg_12" d="m112.79881,36.04826c-0.63942,-0.84102 -1.64883,-1.30427 -2.8427,-1.30427c-0.23486,0 -0.48212,0.01755 -0.7361,0.05207c-2.03959,0.14073 -4.06995,0.34157 -6.0343,0.53605c-2.99475,0.2962 -5.82315,0.57617 -8.07951,0.57617c-1.38555,0 -2.45921,-0.10844 -3.19145,-0.32233l-0.05594,-0.0155c-9.17189,-2.38978 -13.10464,-5.28949 -18.50012,-9.29561c-1.31838,-1.18837 -3.85284,-3.09848 -6.51893,-3.09848c-1.72406,0 -3.18024,0.77401 -4.21144,2.23861l-0.17446,0.24786l-0.08531,0.28819c-0.45838,1.54522 -0.9484,3.11714 -1.42241,4.63735c-0.12371,0.397 -0.24801,0.79641 -0.3721,1.19601c-0.93373,-0.86323 -2.09578,-1.3149 -3.42285,-1.3149c-2.6686,0.00559 -5.19707,1.91086 -6.51159,3.09567c-5.39279,4.00426 -9.32378,6.90265 -18.49703,9.29282l-0.05597,0.0155c-0.73302,0.21407 -1.80879,0.3227 -3.19723,0.3227c-2.25867,0 -5.08958,-0.27979 -8.08665,-0.57581c-1.96106,-0.19373 -3.98794,-0.394 -6.02388,-0.53454c-0.25418,-0.03471 -0.50142,-0.05207 -0.7363,-0.05207c-1.1937,0 -2.20327,0.46325 -2.84229,1.30427c-1.51871,1.99858 -0.42093,5.39121 0.64057,8.67205c0.34103,1.05359 0.66295,2.04879 0.78801,2.70521l0.0222,0.11665l0.03724,0.11312c3.82273,11.57752 8.63091,24.84121 17.34464,35.72797l0.09051,0.10506c6.01868,6.47768 13.05117,10.04519 19.80247,10.04558c0.07334,0 0.14571,-0.00039 0.21943,-0.00132l0.13838,-0.00618c6.44077,-0.51923 12.10065,-5.2249 13.988,-11.54093c2.57616,2.40322 5.89188,3.96545 9.44595,4.25214l0.13837,0.00616c0.07355,0.00093 0.14574,0.00131 0.21907,0.00131c6.74686,0 13.77858,-3.56882 19.79977,-10.0493l0.09069,-0.10508c8.72414,-10.89983 13.52982,-24.15547 17.34965,-35.7246l0.03725,-0.11292l0.0222,-0.11665c0.12466,-0.65607 0.44621,-1.65013 0.78629,-2.70242c1.06052,-3.28252 2.15752,-6.67645 0.63786,-8.67559zm-15.9394,21.82634c-0.25052,0.52838 -1.0426,0.56925 -1.27939,0.56925c-0.31671,0 -0.64462,-0.05841 -0.92371,-0.16406l-0.13106,-0.04964l-0.13702,-0.03078c-2.81644,-0.63273 -4.98787,-3.46021 -5.05097,-6.5766l-0.00271,-0.12785l-0.02045,-0.12636c-0.14437,-0.88526 0.08144,-1.90527 0.562,-2.53799c0.27367,-0.3606 0.60081,-0.56385 1.00013,-0.62115l0.0849,-0.01418c0.07702,-0.01456 0.15828,-0.02277 0.24165,-0.02426l0.01989,-0.00038c0.03146,-0.00092 0.0631,-0.0013 0.09418,-0.0013c2.13361,0 3.77755,2.20501 4.0771,4.24802l0.03455,0.23405l0.09341,0.21837c0.16422,0.38319 0.34645,0.76656 0.52283,1.13723c0.8295,1.74363 1.29849,2.873 0.81467,3.86765zm-17.31994,-9.38167l-0.07836,0.07709c-2.19361,2.28675 -5.14265,3.65187 -7.88826,3.65187c-0.61278,0 -1.21568,-0.06924 -1.79354,-0.20568c-0.73608,-0.2893 -1.37202,-1.04744 -1.59649,-1.91273c-0.10014,-0.38579 -0.19066,-1.10138 0.27811,-1.67308c1.58299,-1.26936 3.7552,-1.63612 6.05206,-2.02378c1.38806,-0.23423 2.81973,-0.47594 4.20991,-0.92837c0.62396,0.10341 0.94473,0.71205 1.05899,0.98735c0.26073,0.62619 0.29586,1.52768 -0.24242,2.02733zm-8.18412,21.99003l0.0907,-0.05337l0.08434,-0.06273c2.13979,-1.59617 4.55594,-2.48086 6.80593,-2.49281c3.09841,0.05599 6.29986,1.80802 8.58884,4.69595c0.51685,0.92744 0.59984,2.22332 0.20187,3.26125c-0.19783,0.51645 -0.59772,1.18257 -1.38573,1.49371c-0.0359,0.00392 -0.07082,0.00616 -0.10557,0.00616c-0.50702,0 -1.1746,-0.49779 -1.88116,-1.02468c-0.53461,-0.39867 -1.0866,-0.81039 -1.72966,-1.14245c-1.73911,-1.05678 -3.83159,-1.61484 -6.05805,-1.61484c-1.53976,0 -3.0851,0.25682 -4.59435,0.76356c-0.19917,0.05769 -0.41823,0.0881 -0.63514,0.0881c-0.07972,0 -0.78165,-0.00971 -0.9013,-0.34566l-0.04788,-0.12057c-0.52727,-1.20236 0.38465,-2.75543 1.56715,-3.45161zm-10.61978,17.13634l-0.03281,0.11422c-1.26587,5.00282 -5.74731,8.92699 -10.67208,9.35664c-0.03492,0.00021 -0.06966,0.00039 -0.1046,0.00039c-7.57289,-0.00039 -13.81139,-5.46233 -16.88432,-8.75715c-8.27503,-10.3636 -12.93093,-23.18903 -16.64115,-34.41772c-0.17602,-0.85764 -0.51646,-1.90974 -0.87583,-3.02065c-0.43541,-1.3457 -1.29387,-3.9981 -1.22979,-5.1049l0.13819,0.01418c2.00043,0.13663 4.0221,0.33633 5.97718,0.52951c3.09782,0.3061 6.0237,0.59503 8.47902,0.59503c1.77578,0 3.17734,-0.15511 4.28362,-0.47371c9.93733,-2.59304 14.33057,-5.85558 19.89259,-9.98545l0.07759,-0.05768l0.07121,-0.06495c1.42646,-1.30109 2.97508,-2.14324 3.94857,-2.14528c0.24859,0 0.53537,0.03434 0.85941,0.39679c0.30167,1.01049 0.60603,2.00045 0.86484,2.83569c-0.04053,0.14465 -0.07894,0.28481 -0.11811,0.42667c-0.04343,0.15715 -0.08685,0.31412 -0.12951,0.47146c-0.44583,1.63948 -0.8021,3.09399 -1.10067,4.49159l-0.0276,0.16649c-0.88066,7.48366 -1.17904,14.19857 -0.88722,20.36621c0.28641,6.0833 1.14699,11.63164 2.59198,16.85526c0.05868,0.21968 0.12102,0.43825 0.18547,0.65512c0.04883,0.16853 0.10094,0.34305 0.15768,0.52036c0.10151,0.39512 0.2204,0.78634 0.35338,1.17345c0.02548,0.075 0.05307,0.14912 0.0797,0.22359c0.03417,0.09461 0.06794,0.18944 0.10384,0.2837c0.05732,0.15156 0.11753,0.30124 0.1791,0.45055c0.00251,0.00579 0.00482,0.01176 0.00733,0.01754c0.29529,0.71205 0.63865,1.3989 1.02715,2.05589c-0.07818,0.29751 -0.16463,0.61761 -0.26325,0.97408c-0.09438,0.35352 -0.19918,0.70777 -0.31092,1.05305z" stroke-width="1" fill="param(fill) #FFF"/>
   <path stroke="param(fill) #000" id="svg_13" d="m54.863,71.57146c-2.39589,-0.51065 -2.57538,2.97175 -3.95301,4.24858c-2.1251,3.52272 -6.20221,6.29664 -10.56457,5.76321c-1.87035,-0.16443 -4.15816,-1.90825 -5.76024,-0.18683c1.44672,2.62103 4.32048,4.34619 7.32875,4.75046c2.4754,0.48825 4.84948,-0.60231 7.23553,-1.03139c1.86573,-0.46269 2.93687,-2.06167 4.01554,-3.4587c1.36934,-1.57174 2.40516,-3.42512 2.67844,-5.4864c0.4219,-1.54617 0.7475,-3.6741 -0.98043,-4.59892z" stroke-width="1" fill="param(fill) #FFF"/>
   <path stroke="param(fill) #000" id="svg_14" d="m36.10716,60.41277c-1.60324,-2.07792 -3.99894,-3.48092 -6.53225,-4.24746c-2.15116,-0.96831 -5.38544,0.6484 -5.02184,3.12759c1.63026,2.17907 4.40231,2.98632 6.7019,4.29898c0.59386,0.21836 1.16185,0.5017 1.77116,0.67994c2.29823,0.96289 4.14523,-1.98925 3.08103,-3.85905z" stroke-width="1" fill="param(fill) #FFF"/>
   <path stroke="param(fill) #000" id="svg_16" d="m47.70987,60.09286c1.88465,-0.15883 2.96621,-1.95006 3.40586,-3.54529c0.72781,-1.57921 2.34089,-3.25209 1.42511,-5.07747c-1.74491,-1.23783 -4.10084,-0.5172 -5.74249,0.53174c-2.49954,1.40152 -2.48448,4.95746 -0.87603,7.00009c0.35493,0.62171 1.02867,1.10921 1.78754,1.09093z" stroke-width="1" fill="param(fill) #FFF"/>
  </g>
 </g>
</svg>